<?xml version="1.0" encoding="utf-8"?>
<svg xmlns="http://www.w3.org/2000/svg" version="1.0" viewBox="0 0 542.924 302.999">
	<title>The third document, in French, with figures indicating the possible position of the shipwreck.</title>
	<path d="M123.928 2.041c0 2.476 2.38 2.095 2.857-.38.19-.953-.381-1.715-1.238-1.715-.953 0-1.62.857-1.62 2.095zm289.053.095c0 1.715.19 1.905 1.429.857.857-.666 1.523-1.619 1.523-2.095 0-.476-.666-.952-1.523-.952-.858 0-1.429.952-1.429 2.19zM88.784 4.993c-1.429 1.62-2.381 3.143-2.095 3.43.285.285-.286 2.38-1.238 4.57-1.429 3.144-1.62 4.382-.667 5.239 1.905 1.905 4.667-.476 4.667-4 0-1.62.762-3.905 1.714-4.953 1.714-1.905 2.476-7.333 1.048-7.238-.477 0-2 1.333-3.429 2.952zm112.193-.19c-1.429 1.524-2.381 3.238-2.286 3.905.19.667-.381 2.667-1.333 4.38-1.524 2.953-1.334 5.906.38 5.906.477 0 1.715-.667 2.763-1.524 1.523-1.143 1.619-1.62.666-2.286-1.714-1.143.286-5.81 2.762-6.476 1.238-.381 1.62-1.238 1.238-3.62-.571-3.714-.952-3.714-4.19-.285zm154.098.667c-2.762 2.952-4.476 14.19-2 13.333.762-.285 1.333-1.81 1.429-3.619 0-1.714.952-4.476 2.19-6.095 2.19-2.953 2.953-6.096 1.524-6.096-.476 0-1.81 1.143-3.143 2.477zM102.88 6.994c-.762.476-2.572.666-4 .38-3.143-.666-4.286.667-4.572 5.143-.095 1.62-.286 3.62-.476 4.477-.762 2.762 1.905 1.524 4.286-2 1.333-1.905 3.619-4.096 5.143-4.762 2.666-1.334 3.333-2.667 1.904-3.62-.476-.285-1.428-.095-2.285.382zm8 .476c-3.143 1.714-5.238 5.428-4.762 8.571.476 3.429 2.952 3.524 6.762.381 2.571-2.285 3.143-3.333 2.857-6.19-.381-4.096-1.333-4.667-4.857-2.762zm3.047 2.571c0 1.81-2.952 6.953-4 6.953-1.428 0-1.238-3.62.286-6 1.238-2.096 3.714-2.762 3.714-.953zm71.43-.666c-3.523 3.523-4.38 6.857-2.19 8.285 2.38 1.429 8.667 1.239 10-.38.952-1.239.952-1.715 0-2-.952-.382-.857-1.239.286-3.905 1.333-3.334 1.333-3.524-1.143-4.381-3.429-1.334-3.143-1.43-6.953 2.38zm5.62.19c0 1.524-3.62 6.381-4.762 6.381-1.715 0-1.62-1.524.285-4.476 1.429-2.19 4.477-3.429 4.477-1.905zm18-2.095c-.857.952-1.048 2.762-.572 5.143.572 3.333.477 3.524-1.523 2.857-1.715-.572-2.096-.286-1.81 1.143.476 2.286 3.429 2.952 5.524 1.238 1.429-1.238 1.429-3.429-.19-7.238-.667-1.524-.477-1.715 1.333-1.143 2.38.762 2.857-.381.952-2.286-1.524-1.524-2.285-1.524-3.714.286zm167.908-.19c-.762.666-1.524 2.57-1.524 4.19 0 1.714-.38 3.81-.857 4.762-.571 1.238-.38 1.714.762 1.714 2.19 0 5.905-6.857 5.238-9.62-.667-2.57-1.428-2.856-3.619-1.047zm6.381.19c-.286.857-.286 1.905 0 2.19.286.286-.095 1.905-.952 3.62-1.429 2.666-1.429 3.142 0 4.57 2.476 2.382 4.38-.285 4.762-6.285.285-4.095 0-5.048-1.429-5.333-.952-.19-2 .38-2.38 1.238zm9.62 0c-.667.952-1.43 2.857-1.524 4.286-.096 1.523-.381 3.428-.572 4.19-.19.857.095 1.714.667 1.905 1.333.571 5.524-6.857 5.238-9.238-.381-2.572-2.095-3.048-3.81-1.143zm7.047 0c-.667.762-.952 1.81-.571 2.38.285.477 0 2.286-.667 4-1.62 4.382.095 6 3.333 3.144 1.524-1.429 2-2.286 1.239-2.667-.953-.381-.953-1.048-.191-2.857 1.905-4.096-.476-7.143-3.143-4zm20 .666c-5.142 3.143-6.38 10.286-1.619 9.715 1.143-.19 2.667.095 3.43.476.761.476 2.285.19 3.809-.857 2-1.238 2.285-1.905 1.333-2.953-.762-1.047-.762-2 0-3.428.571-1.048 1.048-2.381 1.048-2.953 0-1.81-4.953-1.81-8 0zm4 2c0 .572-.952 2.381-2.095 4-3.143 4.382-4.857 2.096-1.904-2.571 2-3.238 4-4 4-1.429zM119.929 8.041c-1.239.762-1.239 1.143-.191 1.81 1.143.762 1.048 1.428-.286 4.095-1.238 2.381-1.428 3.62-.571 4.381 1.714 1.714 4.286-.476 4.571-3.905.19-1.619.477-3.81.667-4.857.381-2.286-1.905-3.143-4.19-1.524zm246.29 2.19c-.095 1.81-.286 4.382-.476 5.715-.19 1.714.19 2.572 1.238 2.572.762 0 1.524-.953 1.524-2.096.095-1.047.667-2.952 1.238-4.19 1.81-3.334 1.429-5.238-1.048-5.238-1.81 0-2.285.571-2.476 3.238zm42.191-2.285c-.285.571-.285 1.524.096 2.095.285.572.095 2.381-.667 4.096-.762 1.904-.857 3.333-.19 3.904 1.619 1.715 4 0 4-2.857.095-1.428.38-3.905.762-5.429.666-2.38.476-2.761-1.334-2.761-1.143 0-2.286.476-2.667.952zm-47.239 2.571c-2.571 3.239-2.857 5.715-.761 7.43 1.333 1.142 1.523.761 1.523-2.096 0-1.905.477-4 1.143-4.572.572-.571.857-1.714.667-2.38-.286-.763-1.238-.191-2.572 1.618zM229.93 57.471c0 .857.666 1.524 1.524 1.524.761 0 1.523-.667 1.523-1.524 0-.762-.762-1.524-1.523-1.524-.858 0-1.524.762-1.524 1.524zm308.863-.762c0 .476 0 1.143.095 1.619 0 .476-1.238 3.714-2.952 7.238-1.62 3.524-2.953 6.857-2.953 7.334 0 1.904 2.096 2.19 4.477.666 2.762-1.81 3.238-3.619.952-3.619-1.143 0-.857-1.238 1.524-5.905 1.619-3.333 3.048-6.476 3.048-7.047 0-1.143-4-1.43-4.191-.286zm-36.382 3.333c-1.81 2-4.095 7.143-5.143 11.715-.476 1.714-.095 2.19 1.429 2.19 2.762 0 5.143-2.762 3.333-3.905-1.428-.857-.38-3.81 2.381-6 1.62-1.428 2.096-4.571.667-5.428-.476-.286-1.714.38-2.667 1.428zm-315.625 3.715c-1.048.761-1.81 2.38-1.81 3.714 0 1.333-.476 2.667-1.047 3.048-1.81 1.142-1.048 3.523 1.524 4.666 2.857 1.334 3.238 3.62.857 4.477-1.143.476-2.381-.19-3.524-1.62-2-2.476-3.524-2.19-2.476.382.762 2.095 5.238 3.047 8.19 1.714 3.143-1.429 3.048-4.476-.19-6.667-1.429-.952-2.19-2-1.714-2.381.571-.286.952-1.905.952-3.524-.095-2.19.38-3.143 1.81-3.428 1.619-.286 1.809.095 1.238 2.857-.572 2.762-.477 3.047.857 2 .762-.667 1.524-1.81 1.524-2.476 0-.762.952-1.524 2.19-1.905 1.143-.286 1.81-.857 1.429-1.334-1.238-1.238-7.81-.857-9.81.477zm13.905-.667c-2.476 1.428-4.952 6.667-4.286 8.952 1.238 3.715 7.715 1.239 9.62-3.81 1.904-4.952-.953-7.714-5.334-5.142zm2.667 5.333c-.667 2.667-2.953 4.381-4.19 3.143-.287-.285.19-2.19 1.142-4.19 2-4.19 4.19-3.429 3.048 1.047zm6.476-4.762c-1.048 1.238-1.143 1.715-.19 2.096.952.285.952 1.047-.19 3.238-3.239 6.19-.382 6.952 3.713.952 3.239-4.667 5.524-5.333 3.239-.857-2.096 4.095-.667 5.905 3.047 3.905 2.667-1.429 3.524-3.62.953-2.667-1.334.572-1.334.286 0-2.286.857-1.619 1.524-3.619 1.524-4.476 0-2-3.334-2-5.048 0-1.143 1.429-1.429 1.429-2.19 0-1.144-2-3.144-2-4.858.095zm16.572-.19c-1.524 1.143-1.62 1.714-.762 2.286.952.666 1.048 1.523.095 4-1.619 4.095-.19 5.905 2.953 3.714 2.19-1.524 3.238-4.19 1.238-2.952-1.334.857-1.238-1.143.19-3.429 1.143-1.905.572-5.143-.952-5.143-.476 0-1.715.667-2.762 1.524zm9.905 1.905c-3.524 3.524-4.286 6.666-2.095 8.38 1.428 1.239 5.714-.19 5.714-1.809 0-.952-.381-.857-1.429 0-.952.762-1.619.857-2 .095-.857-1.333.19-3.047 1.81-3.047 2 0 4.952-3.715 4.286-5.429-.953-2.38-2.572-1.905-6.286 1.81zm238.1-1.81c-1.334 1.048-1.62 1.714-.762 2.095.857.286.952 1.238.19 2.953-1.238 3.428-1.143 5.333.381 5.333 1.143 0 3.048-4.095 4.381-9.714.667-2.667-1.333-3.048-4.19-.667zm8.857.572c-4.19 4.666-5.238 9.904-2 9.81 2.286 0 4-1.715 3.333-3.43-.38-.952-.19-2.57.381-3.619.572-1.142.953-2.666.762-3.523-.285-1.239-.762-1.048-2.476.762zm7.715-.667c-1.048 1.238-1.048 2.095 0 4.571 1.428 3.429.666 4.858-1.524 2.953-1.905-1.524-3.048-.762-2.19 1.524.475 1.047 1.618 1.523 3.428 1.333 2.571-.381 2.762-.667 2.571-4.572-.19-3.142.19-4.285 1.238-4.285.762 0 1.429-.667 1.429-1.524 0-1.905-3.429-1.905-4.952 0zm18.095-.095c-.667.762-.952 2.095-.571 2.952.285.762-.096 2.572-.953 3.905-1.524 2.286-1.333 3.714.477 3.714.476 0 1.81-1.714 2.952-3.905 1.333-2.19 3.238-4.19 4.571-4.476 1.334-.38 2.381-1.238 2.381-2.095 0-1.81-1.142-1.905-2.761-.286-.953.953-1.524.953-2.477 0-1.524-1.524-2.285-1.524-3.619.19zm13.715.952c-3.048 2.381-5.048 6.762-4 8.381.38.667 2.666 1.048 5.143.953 4.285-.191 4.476-.286 5.143-3.715.285-1.905.857-4.19 1.238-5.048.571-1.142.095-1.81-1.62-2.285-3.047-.762-2.857-.857-5.904 1.714zm3.619 2.952c-1.334 4.191-4.476 6.477-4.476 3.239 0-2.286 2.285-5.524 3.81-5.524.952 0 1.142.666.666 2.285zm-60.478-2.285c0 1.143-.666 3.047-1.428 4.285-.953 1.43-1.143 2.762-.667 3.62 1.238 1.904 4.476.571 3.715-1.524-.381-.762.095-2.762.857-4.381 2-3.715 1.904-4-.477-4-1.333 0-2 .666-2 2zm-7.428 2.952c-1.62 3.048-1.238 6 .857 6 .762 0 1.238-1.143 1.238-2.666 0-1.524.286-3.62.762-4.572 1.333-2.952-1.238-1.905-2.857 1.238zm-33.525 45.049c0 1.143-1.143 4.285-2.571 6.952-2.857 5.715-3.143 8.857-.857 9.715 2 .762 6.476-2.572 8.285-6.191 1.239-2.571 1.239-2.952-.952-4.667-1.714-1.428-2-2.19-1.143-3.047 1.905-1.905 1.429-4.762-.762-4.762-1.428 0-2 .666-2 2zm2.953 7.619c0 1.81-3.429 7.429-4.286 7.143-1.905-.667-1.81-2.381.286-5.048 2-2.476 4-3.524 4-2.095zm-20 .38c-2.286 2.096-3.048 3.62-2.858 5.525.476 3.619 2.286 3.619 2.667 0 .19-1.715 1.143-4.19 2.19-5.524 1.715-2.286 1.905-2.286 2.572-.667.38.953.095 2.857-.572 4.19-1.428 2.667-.666 5.906 1.238 5.144.667-.19 1.143-.953 1.048-1.62-.19-.57.381-2.38 1.238-4 2.286-4.476 1.905-6.095-1.428-6.095-1.81 0-4.096 1.143-6.096 3.048zm28.19-1.428c-4.38 3.048-5.238 10.381-1.238 10.381.953 0 2.953-1.047 4.476-2.476 2.096-1.905 2.667-3.238 2.381-5.714-.38-3.81-2.285-4.477-5.619-2.19zm3.81 1.238c0 2.477-2.381 7.143-3.62 7.143-1.714 0-1.809-2-.19-5.428 1.048-2.381 3.81-3.524 3.81-1.715zm7.143-1.428c-.667.666-.857 1.524-.667 1.81.286.285-.095 2.095-.952 4.095-2.095 5.143-.095 5.619 2.952.762 1.429-2.286 3.62-4.286 5.048-4.667 1.333-.286 2.476-1.238 2.476-2 0-2-2.666-1.715-3.905.38-.952 1.62-.952 1.62-1.619 0-.857-2.095-1.81-2.19-3.333-.38zM55.45 167.949c-.762 1.238.19 3.048 1.524 3.048.571 0 .952-.857.952-2 0-2.096-1.428-2.667-2.476-1.048zm323.245-.38c-.381.38-.381 1.237-.096 1.904.19.667-.952 4.381-2.666 8.095-3.143 6.953-2.953 9.143.762 8 2.095-.666 3.904-3.619 2.19-3.619s-.952-3.333 1.62-7.428c2.856-4.858 3.142-7.524.57-7.524-.952 0-2.095.285-2.38.571zm64.953.094c-1.238 1.143-.762 2.286.762 2.286.857 0 1.524-.667 1.524-1.428 0-1.62-1.143-2-2.286-.858zm39.81.286c-.761 1.238.191 3.048 1.524 3.048.572 0 .953-.857.953-2 0-2.096-1.429-2.667-2.476-1.048zm-8.476 1.524c0 2.095-2.952 4.476-5.524 4.476-2.952 0-7.524 5.334-7.524 8.667 0 2.095.381 2.381 3.334 2.19 1.81-.095 3.714.096 4.286.477.571.38 1.904 0 2.952-.762 1.62-1.238 1.714-1.62.571-2.381-1.142-.762-.952-1.81 1.239-5.62 2.666-4.857 3.428-8.57 1.619-8.57-.572 0-.953.666-.953 1.523zm-4.762 7.143c.953.952-2.476 6.381-4 6.381-1.714 0-1.619-2.095.286-4.762 1.619-2.286 2.571-2.762 3.714-1.619zm-426.294-4.381c-1.333 2.095-3.429 6.857-4.667 10.953-.666 2.285 2.19 3.523 4.096 1.81.952-.763 1.333-2.191.952-3.906-.381-1.905.095-3.143 1.524-4.476 2.286-2.095 2.857-6.667.857-6.667-.667 0-1.905 1.048-2.762 2.286zm149.05-1.238c0 .571-1.618 2-3.523 3.238-3.62 2.286-4.477 4.286-2.286 5.048 1.524.476-3.143 10.667-4.953 10.667-.761 0-1.238.761-1.238 1.523 0 .858.858 1.524 1.905 1.524 3.334 0 4.857-1.047 4.286-3.047-.286-1.429.38-2.381 2.762-3.715 7.048-3.714 9.714-8.762 6.476-12.19-.857-1.048-1.333-2.382-1.047-2.953.38-.571 0-1.143-.858-1.143-.857 0-1.523.476-1.523 1.048zm1.81 7.619c-.38 2.667-3.238 5.333-4.38 4.19-.858-.857 2.285-6.857 3.618-6.857.572 0 .857 1.238.762 2.667zM60.593 174.14c-1.333.762-1.62 1.714-1.143 3.81.286 1.618.095 3.142-.476 3.523-.572.381-1.048 1.334-1.048 2.095 0 2.667 2.762 1.43 5.524-2.571 3.429-4.952 5.048-5.238 2.762-.476-2.19 4.476-.667 6.571 3.238 4.476 2.381-1.238 3.429-4 1.524-4-.476 0-.38-1.333.286-2.952 1.524-4.191-.19-6-3.62-3.81-2.095 1.333-2.666 1.429-3.809.286-1.047-1.048-1.905-1.143-3.238-.381zm266.862 2.19c-2.19 2.096-3.523 4.477-3.523 6 0 3.239 1.142 3.905 4.38 2.667 3.048-1.143 3.525-3.048.667-2.286-1.333.286-2 0-2-.857 0-2.19 2.857-5.333 4.762-5.333.953 0 1.715-.667 1.715-1.429 0-2.762-2.572-2.19-6 1.238zm9.334-1.333c-2 1.619-2.095 2.095-.952 2.952 1.238.762 1.238 1.334.285 3.62-2.19 4.666.286 5.142 3.238.666 1.43-2.19 3.715-4.476 5.143-5.048 3.239-1.523 3.048-3.238-.38-3.047-1.524.19-3.239-.096-3.905-.476-.572-.381-2.096.19-3.429 1.333zm12.953 0c-1.81 1.524-2 2.19-1.048 2.857 1.048.667 1.143 1.333.095 3.524-1.524 3.429-.095 5.333 3.048 3.714 1.524-.857 2.571-.857 4 .096 2.571 1.619 5.048-.381 4.952-4-.095-1.524.191-3.715.667-4.953 1.238-3.714-1.714-2.667-4.857 1.81-3.238 4.571-5.429 5.333-3.238 1.047.857-1.714 1.619-3.428 1.619-3.905 0-2-3.048-2-5.238-.19zm19.238-1.333c-2.095.571-6 6.476-6 9.047 0 2.667 2.476 3.62 5.238 2.096l2.19-1.239-2.19-.38c-3.333-.477-2.762-2.096 1.238-3.81 2.762-1.143 3.524-2 3.334-3.62-.381-2.19-1.334-2.761-3.81-2.094zm70.382.857c-1.523 1.143-1.619 1.619-.666 2.285 1.047.667 1.047 1.429.19 3.43-1.238 2.666-.762 5.713.857 5.713.477 0 1.715-.571 2.762-1.428 1.524-1.143 1.62-1.714.667-2.381-1.048-.667-1.048-1.333-.19-3.429 1.238-2.571.762-5.714-.858-5.714-.476 0-1.714.667-2.762 1.524zm9.524-.286c-1.428 1.238-2.476 10.762-1.142 10.762.38 0 2.38-1.905 4.476-4.286 2.19-2.38 3.524-3.333 3.143-2.19-1.81 5.143-1.715 6.476.38 6.476 2.667 0 3.525-1.524 3.81-6.667.286-4.857-.666-5.905-3.714-4.095-1.714.952-2.286 1.048-2.571 0-.572-1.524-2.381-1.524-4.382 0zm-444.39 1.81c-3.523 2.857-5.047 6.666-3.428 8.666 1.429 1.715 5.048 1.334 5.62-.666.38-.857 0-1.143-1.048-.762-2.381.857-2.762-.286-1.143-3.334.762-1.523 2.285-2.952 3.428-3.143 1.143-.19 2.096-.761 2.096-1.333 0-1.81-2.762-1.524-5.524.572zm9.43 1.238c-3.715 6.095-1.81 10.286 3.619 7.81 2.761-1.239 5.714-7.144 4.762-9.525-.381-.952-1.81-1.619-3.524-1.619-2.19 0-3.334.857-4.858 3.334zm5.047.666c0 1.715-2.38 6-3.238 6-1.143 0-1.048-2.666.19-5.047 1.143-2 3.048-2.572 3.048-.953zm7.334-2.762c-.381.667-.858 2.096-.953 3.239 0 1.142-.476 3.333-.857 4.857-1.143 4.095.667 3.333 4.286-1.81 3.905-5.333 5.81-5.905 3.428-.952-1.238 2.667-1.428 3.81-.476 4.667.857.857 1.62.761 3.238-.667 1.429-1.333 1.715-2.095.762-2.667-.857-.476-.857-1.047-.095-2 .572-.762 1.333-2.38 1.714-3.619.572-1.905.381-2.286-1.904-2.286-1.334 0-2.477.476-2.477 1.048 0 .571-.762.952-1.523.952-.858 0-1.524-.38-1.524-.952 0-1.429-2.762-1.238-3.62.19zm24.572.381c-.953 1.143-1.048 1.81-.191 2.286.762.476.762 1.238.19 2.19-1.333 2.096-1.142 6 .286 5.905 2.19 0 4.096-1.619 2.857-2.38-.761-.477-.666-1.62.477-3.715 2.476-4.857-.381-8.19-3.62-4.286zm150.955-1.047c-.095.285-.286 1.714-.381 3.238-.19 1.524-.667 3.81-1.048 5.143-1.143 3.619 1.429 2.19 3.715-2 .952-1.81 2.285-3.429 2.857-3.524.476-.095 1.428-.19 2-.286 1.238-.095 1.238-3.143 0-3.143-.476 0-1.048.572-1.333 1.334-.381.952-.762.952-1.81 0-1.333-1.239-3.81-1.715-4-.762zm277.148.857c-.857 1.047-.857 1.524 0 1.81.857.285.762 1.333-.476 3.619-.857 1.81-1.428 3.714-1.048 4.19.858 1.524 4.096 1.238 5.524-.476.953-1.238.858-1.524-.38-1.524-2.096 0-2.096-.476-.096-3.524 2.667-4.095-.476-7.714-3.524-4.095zm-360.864 49.144c.476 2.19 2.19 2.38 2.667.19.19-1.047-.286-1.714-1.334-1.714-.952 0-1.524.667-1.333 1.524zm26.858.285c-.572 1.143-1.048 2.572-1.048 3.239 0 .571-1.143 2.571-2.476 4.38-2.667 3.524-3.334 8.096-1.238 8.858.666.19 2.19.095 3.428-.381 2.857-1.048 3.048-3.333.286-2.381-3.238 1.048-2.286-1.143 1.524-3.429 3.81-2.19 4.476-4.476 1.81-5.905-1.524-.857-1.524-1.238-.382-2.666.953-1.143 1.048-1.905.286-2.667-.762-.762-1.333-.476-2.19.952zm290.958-.285c0 .762.667 1.428 1.524 1.428.762 0 1.524-.666 1.524-1.428 0-.857-.762-1.524-1.524-1.524-.857 0-1.524.667-1.524 1.524zm-301.53 3.238c-1.048 1.524-1.81 3.048-1.714 3.524.19.38-.381 2.095-1.238 3.714-.858 1.62-1.524 3.62-1.524 4.476 0 2 3.333 2 5.047 0 .953-1.238.858-1.523-.476-1.523-1.524 0-1.524-.191 0-3.239.953-1.714 2.096-3.428 2.476-3.714 1.143-.762 1.524-5.238.477-5.62-.572-.19-1.905.953-3.048 2.382zm308.959-.762c-1.81 2-4 7.238-5.143 11.714-.381 1.81-.096 2.286 1.428 2.286 2.762 0 4.572-2.286 3.143-3.81-.857-.761-.762-1.714.476-3.619.953-1.428 2.19-2.571 2.667-2.571.571 0 1.048-1.333 1.048-3.048 0-3.428-1.048-3.714-3.62-.952zm-318.578 3.714c-2.857 1.715-4.857 5.143-4.857 8.286 0 2.572 3.81 3.62 5.81 1.62 1.523-1.525 1.428-1.62-.572-1.62-3.238 0-2.762-1.905.762-3.143 2.952-1.047 4.666-3.905 3.524-5.81-.858-1.428-1.524-1.333-4.667.667zm266.196.857c-5.43 4.572-3.239 12.572 2.38 8.858 5.62-3.62 6.286-11.429 1.048-11.429-.19 0-1.714 1.143-3.428 2.571zm3.81 4c-.763 1.524-1.906 2.953-2.572 3.143-1.81.667-1.62-2.857.285-5.619 2.286-3.143 4.096-1.238 2.286 2.477zm6.666-4.571c-1.238 1.333-1.429 2-.571 2 1.238 0 1.238.476-.667 6.286-.953 3.143 1.619 1.81 4.286-2.286 2.857-4.19 5.047-5.333 4-2-.286 1.143-.857 2.857-1.143 4-.476 1.524-.19 2 1.333 2 2.572 0 5.143-2.857 3.524-3.81-.762-.476-.857-1.238-.286-2.19 1.334-2.095 1.238-6-.19-6-.667 0-2 .762-2.953 1.619-1.714 1.524-1.904 1.524-2.476 0-.857-2.19-2.667-2-4.857.381zm23.334-1.333c-2.096.38-2.476.857-2.096 2.857.286 1.619-.095 2.667-1.238 3.048-2.285.952-2.857 0-1.523-2.572.666-1.238.952-2.381.571-2.762-1.048-1.048-3.714 2.095-3.429 4.19.19 2.667-.952 5.525-3.333 8.191-1.81 2-1.81 2.286-.286 3.715 3.524 3.619 11.62.762 9.524-3.239-.571-1.047-1.714-2.095-2.476-2.476-2.381-.857-1.905-2.286 1.429-3.619 1.619-.667 3.238-2.095 3.523-3.143.381-1.047 1.239-1.905 2-1.905.858 0 1.524-.666 1.524-1.428 0-.857-.38-1.429-.762-1.334-.476 0-2 .286-3.428.477zm-5.429 13.714c2.19 1.524 1.333 3.62-1.429 3.62-2.285 0-3.428-1.525-2.666-3.525.762-1.81 1.81-1.81 4.095-.095zm-305.72-11.905c-1.715 1.238-1.715 1.429-.19 2.286 1.428.762 1.333 1.429-1.048 6.572-1.81 3.81-3.334 5.619-4.572 5.619-2.381 0-3.429 1.904-1.429 2.666 2.572.953 5.905-2 8.763-7.81 3.81-7.904 4.476-10.857 2.095-10.761-.953 0-2.667.666-3.62 1.428zm318.292-.476c-1.143.762-1.238 1.143-.19 1.81.952.666.856 1.523-.382 4-1.714 3.428-1.143 5.524 1.429 4.952.952-.19 1.714-1.333 1.81-2.762 0-1.428.476-4 .857-5.714.762-3.524-.477-4.286-3.524-2.286zm-320.197 49.144c-2.857 5.143-4.667 9.81-3.81 9.81 1.334 0 8.096-9.143 7.715-10.286-.667-2-2.572-1.715-3.905.476zm-53.525 0c-3.429 3.333.476 9.62 5.143 8.476 2.857-.762 4.476-4.952 2.857-7.524-1.238-2-6.38-2.571-8-.952zm6.19 3.333c0 2.19-3.047 3.334-4.57 1.81-.572-.572-.668-1.715-.287-2.667.858-2.38 4.858-1.714 4.858.857zM206.978 281c0 1.048-1.429 4.762-3.048 8.19-3.81 7.81-3.143 10.953 1.524 7.334 1.714-1.238 1.714-1.619.476-2.476-1.238-.762-.952-1.905 1.81-6.953 3.714-6.952 3.905-8.095 1.238-8.095-1.333 0-2 .667-2 2zm-191.052 2c-.571 1.143-1.81 2-2.666 2-.953 0-1.334.572-.953 1.429.286.762-.19 3.333-1.143 5.524-2 5.143-.761 7.047 3.239 5.238 2.476-1.143 3.523-4.19 1.523-4.19-1.81 0-1.047-2 1.524-4.382 2.762-2.571 3.429-7.619 1.048-7.619-.857 0-2 .857-2.572 2zm213.529.381c-1.143 1.238-2.858 4.476-3.81 7.143-2.095 5.714-1.143 7.62 2.762 5.524 2.667-1.524 3.524-3.62 1.048-2.667-2.381.857-1.81-1.81 1.142-4.952 2.667-2.953 3.81-7.429 1.905-7.429-.571 0-2 1.048-3.047 2.381zm-184.957.381c-1.619 1.619-.285 3.238 2.477 3.238 3.714 0 3.81 1.429.476 8-2.762 5.429-3.143 8-1.238 8 .952 0 8.095-18.095 7.333-18.571-.666-.572-8.667-1.048-9.048-.667zm37.906 6.19c0 6.858.095 7.048 2.571 7.048 2.381 0 2.477-.19 2.477-7.047 0-6.762-.096-6.953-2.477-6.953-2.476 0-2.571.19-2.571 6.953zm14 .096c0 6.762.095 6.952 2.476 6.952 2.477 0 2.572-.19 2.572-7.047 0-6.762-.095-6.953-2.476-6.953-2.477 0-2.572.19-2.572 7.048zm-64.572-4.476c-1.048 1.333-.953 1.428 1.428.857 3.429-.857 4.667 1.81 2.095 4.666-1.714 1.905-1.714 2 .477 4 2.476 2.286 2.476 4.667-.096 6.286-1.333.762-2.19.572-3.619-.762-1.143-.952-2.286-1.333-2.571-.761-1.048 1.619 2.095 3.333 5.524 2.952 2.38-.19 3.714-1.048 4.857-3.048 1.333-2.476 1.333-3.047-.095-5.524-1.143-2.095-1.334-3.428-.572-4.952.476-1.238.667-2.857.286-3.714-.762-2.096-6-2-7.714 0zm-28.763 2.952c-3.238 3.62-3.81 5.905-2.19 8.381.571.857 1.714 1.143 3.428.667 2.762-.667 3.62-2.572 1.143-2.572-2.571 0-1.714-1.714 2-3.905 3.714-2.19 4.476-4.476 1.905-5.523-2.572-.953-3.048-.762-6.286 2.952zm210.957-1.905c-3.143 2.19-5.143 6.572-4 8.667 1.333 2.286 3.238 2.19 2.476 0-.572-2 2.762-8.286 4.38-8.286 1.62 0 1.239 3.238-.57 5.905-2.191 3.048-.477 4.952 3.047 3.333 2.667-1.238 3.62-3.619 1.048-2.571-1.905.667-1.81-.572.095-3.143.762-1.048 1.429-2.571 1.429-3.429 0-2.095-5.048-2.476-7.905-.476z"/>
</svg>
