<?xml version="1.0" encoding="utf-8"?>
<svg xmlns="http://www.w3.org/2000/svg" version="1.0" viewBox="0 0 593.816 250.084">
	<title>The second, much damaged document, in German.</title>
	<path d="M34.448 1.327c-2.19 1.524-1.81 5.524.572 7.048 2.286 1.428 3.524 0 2-2.381-1.429-2.381.19-2.667 4.286-.858 3.143 1.429 2.952 4.19-.286 4.667-2 .286-2.286.762-1.714 2.857.952 3.81-2.858 9.334-6.477 9.334-1.619 0-3.143.476-3.524 1.047-.952 1.62 1.429 3.905 4.096 3.905 2.952 0 5.714-2.857 8.762-9.428 2.286-4.762 2.762-5.239 6-5.334l3.524-.095-1.62 2.857c-1.428 2.381-1.523 3.238-.475 4.286 1.047 1.048 1.81.952 4.095-.381 2.571-1.429 2.952-1.429 3.81 0 .857 1.333 1.428 1.429 3.714.38 2.667-1.237 3.524-3.809 1.428-4.475-.761-.286-.571-1.239.667-3.143 1.333-2 1.524-3.048.667-3.81-.762-.857-2.19.095-5.238 3.524-4.381 4.952-6.381 5.62-3.429 1.143 3.048-4.762.19-7.143-4.381-3.524-2.381 1.81-5.048 1.714-5.048-.095 0-.572 1.334-2.286 3.048-3.81 3.048-2.762 3.238-5.048.286-5.048-.762 0-1.715.667-2 1.524-.381.762-1.429 1.429-2.381 1.429-.953 0-2.286-.667-2.953-1.429-1.619-1.905-5.048-2-7.429-.19zm462.676.571c-5.905 3.715-8.667 10.381-5.905 14.572 1.334 2.095 2.477 2.476 6 2.476 3.905 0 4.477-.286 6.858-4 2.476-3.714 2.476-4 .667-4h-2.667c-.381 0-1.048 1.333-1.524 3.048-.667 2.666-1.238 3.047-3.524 2.857-2.286-.286-2.762-.857-2.952-3.905-.572-7.333 6.476-13.334 10.857-9.333 1.714 1.523 2.19 1.619 2.952.38 2.096-3.523-5.904-5.142-10.762-2.095zm-406.58-.286c-1.333 1.334-.666 2.381 1.334 2.381 1.048 0 2-.666 2-1.523 0-1.524-2.19-2-3.333-.858zm424.2.096c-.096.476-.096 1.143 0 1.524 0 .38-1.238 3.619-2.953 7.143-1.619 3.428-2.952 6.762-2.952 7.428 0 2.096 2.095 2.381 4.095.572 1.524-1.334 1.62-1.905.667-2.572-.953-.571-.476-2.286 2-7.048 3.81-7.333 3.905-7.81 1.238-7.81-1.143 0-2.095.382-2.095.763zM.257 7.422c-.762 3.048.381 5.238 1.905 3.62 1.143-1.048 5.714-1.525 5.714-.477 0 .286-1.619 3.333-3.619 6.667-3.524 6-3.81 8.762-1.047 8.762 1.904 0 3.238-1.905 4.095-6 .476-1.905 1.81-5.62 3.143-8.286C13.115 6.374 13.21 6.47 5.59 5.613 1.21 5.04.829 5.232.257 7.423zm67.05 1.62c-1.62 1.809-1.715 2.19-.477 2.952s1.238 1.333.286 2.952c-3.334 5.334-.096 5.429 4.476 0 3.714-4.381 6.381-5.429 3.81-1.524-2.286 3.524-2 5.524.762 5.524 3.047 0 6.666-3.714 4.762-4.857-.953-.572-1.048-1.429-.381-2.762 1.238-2.286.571-4.381-1.334-4.381-.762 0-2.38.571-3.524 1.333-1.714.953-2.19.953-2.571 0-.667-1.905-3.715-1.524-5.81.762zm19.619-.763c-2.19 1.143-2.953 3.524-.953 2.953 1.143-.286 1.143-.096-.666 3.619-1.715 3.428-1.334 5.143 1.333 5.143 1.81-.095 5.238-2.286 5.238-3.334 0-.38-.762-.666-1.619-.666-1.143 0-1.429-.476-.952-1.715 2.476-5.714 1.523-8-2.381-6zm433.913 1.429c-2 1.81-3.143 3.905-3.333 5.81-.19 2.857 0 2.952 4.666 3.238 4.762.38 8.191-1.048 7.048-2.858-.286-.571-.952-.666-1.524-.285-.571.285-.285-.762.572-2.476 2.38-4.667 2-6.191-1.429-6.191-1.81 0-4.095 1.048-6 2.762zm3.048 4.762c-1.334 2.476-4 3.524-4 1.524 0-.572.666-2.19 1.619-3.62 2.19-3.333 4.286-1.523 2.38 2.096zm10.952-6c-1.143 1.428-1.047 2.952.477 6.857.666 1.524.38 1.714-1.81 1.143-3.143-.762-3.62.952-.762 2.476 1.429.762 2.476.572 4.095-.762 2.19-1.714 2.19-1.905.572-5.047-1.62-3.143-1.62-3.239.095-3.143 3.143.38 3.62.095 2.381-1.524-1.619-1.905-3.429-1.905-5.048 0zm-79.335 104.192c-1.238 1.238-.666 3.334.858 3.334.762 0 1.523-.667 1.523-1.429 0-1.714-1.428-2.857-2.38-1.905zm75.811 4.667c-2.19 2.667-5.619 11.62-4.857 12.857.857 1.334 4.096.953 5.429-.761 1.143-1.334 1.048-1.715-.095-2.477-1.143-.666-1.048-1.333.666-3.619 4.477-6.19 3.524-11.333-1.143-6zm-111.05 2c-3.428 1.81-4.57 4.667-1.904 4.667.762 0 1.524-.476 1.524-1.048 0-.476.666-.952 1.524-.952 1.523 0 1.523.19 0 2.476-.858 1.333-1.524 3.429-1.524 4.572 0 1.904.38 2.095 3.238 1.714 1.714-.286 4-.095 4.952.38 2.572 1.334 5.429-.57 7.81-5.237 2.381-4.667 1.905-8.858-.571-5.429-.858 1.048-1.429 2.667-1.429 3.62 0 2.19-2.857 5.142-4.095 4.38-.572-.38-.286-1.81.571-3.524 1.714-3.238 1.905-6 .572-6-1.334 0-4.096 4.19-4.096 6.19 0 1.906-2.762 4.477-3.714 3.525-.381-.381.095-2.286 1.047-4.19.953-2.001 1.715-3.906 1.715-4.382 0-1.429-3.62-1.905-5.62-.762z"/>
	<path d="M408.551 119.615c-1.048 1.047-.857 4.38.19 4.38.477 0 1.143-.57 1.334-1.237.286-.667.857-.953 1.238-.572s-.667 2.096-2.38 3.81c-1.715 1.714-3.049 3.524-3.049 3.905 0 1.143 7.334 1.047 8.667-.095 1.62-1.334 1.715-4.858.19-4.858-.666 0-.475-.857.477-2.38.857-1.43 1.619-2.763 1.619-3.048 0-.762-7.524-.667-8.286.095zm4.762 7.333c-.286.572-1.048 1.048-1.524 1.048-.571 0-.952-.476-.952-1.048 0-.476.667-.952 1.524-.952s1.333.476.952.952zm28.858-6.476c-2.572 1.81-4.762 6.953-4 9.048.762 1.905 5.81 1.619 6.476-.381.286-.953-.19-1.143-1.714-.667-3.334 1.048-2.476-1.047 1.428-3.333 2.19-1.334 3.524-2.857 3.524-4.096 0-2.476-2.666-2.666-5.714-.571zm8.571.095c-.952 1.238-1.047 1.715-.095 2.286.953.667.857 1.429-.286 3.714-.857 1.715-1.142 3.239-.571 3.81 1.333 1.238 6.095-.19 6.095-1.905 0-.857-.666-1.143-1.619-.762-1.428.476-1.428.286 0-2.666 2.667-4.953-.19-8.477-3.524-4.477zm64.383 2.096c-4.667 4.952-4.19 7.619 1.524 8.38 4.571.667 8.857-1.237 6.476-2.857-.953-.571-.857-1.428.286-3.619 3.333-6.476-2.667-7.905-8.286-1.904zm4.857 2.095c-1.429 2.667-3.81 4.476-4.476 3.428-.953-1.428 3.333-7.619 4.476-6.476.762.762.667 1.714 0 3.048zm17.238-3.62c-1.714 2-1.714 2.096-.095 1.525 2.095-.762 2.095 0 .19 3.333-3.428 6-.666 6.762 3.144.952 1.428-2.19 3.714-4.285 5.047-4.571 1.238-.286 2.381-1.238 2.381-2 0-1.62-.571-1.715-3.047-.381-1.239.666-2.096.666-2.477 0-1.047-1.62-3.047-1.143-5.143 1.143zm16-.952c-1.237.572-2.952 2.477-3.904 4.286-1.429 2.572-1.524 3.62-.572 5.334 1.524 2.952 3.239 2.761 6.953-.667 3.238-3.048 4.095-6.857 1.905-8.953-1.334-1.428-1.524-1.428-4.381 0zm1.048 7.239c-1.619 2.571-3.428 2.666-3.428.19 0-.762 1.047-2.667 2.285-4.19 2.096-2.763 2.191-2.763 2.572-.762.095 1.238-.476 3.333-1.429 4.762zm9.143-7.048c-1.81 1.238-1.81 2.571-.095 6.857.572 1.333.286 1.714-1.143 1.524-2.476-.381-3.238 1.238-1.143 2.571 1.334.858 2.19.667 3.81-.762 2-1.81 2-2.762.19-7.524-.38-.952 0-1.238 1.048-.761 2.095.761 3.048-.286 1.62-1.905-1.43-1.715-2-1.715-4.287 0zm10.096 1.047c-3.715 3.429-5.143 7.524-3.334 9.334.858.857 2.286 1.143 3.524.762 2.762-.857 2.762-2.286-.095-2.762-2-.286-1.81-.572 2-3.048 5.048-3.238 6.667-3.428 5.81-.762-.286 1.143-.857 2.953-1.143 4-1.143 3.62 1.905 2.286 4.286-1.904 3.714-6.382 2.476-9.715-2.381-6.477-2.381 1.524-2.667 1.524-3.524 0-1.238-2.095-2.096-2-5.143.857zm16-1.238c-1.333.762-1.524 1.238-.762 1.81.953.476.762 1.619-.571 4.38-2.19 4.668-.762 6.668 3.047 4.096 2.858-1.81 3.62-4.095 1.143-3.143-1.333.572-1.333.19 0-2.476 1.524-2.952 1.429-5.905-.285-5.81-.381 0-1.62.477-2.572 1.143zM427.41 174.76c-4.572.476-6.191 2.19-7.048 7.81-.286 2.19-1.429 4.761-2.572 5.714-2.476 2.095-2.476 3.333 0 4.667 4.096 2.19 10.096.285 10.096-3.239 0-.857-1.238-2.38-2.667-3.523l-2.667-1.905 3.239-1.143c1.81-.667 3.428-2 3.81-3.238.38-1.62 1.047-1.905 3.142-1.429 3.333.857 3.429.953 2.19 3.334-1.333 2.476-1.428 5.143-.19 5.143.476 0 1.905-1.524 3.143-3.524 1.143-1.905 3.429-4.19 5.048-4.953 4.19-2.19 2.857-3.333-3.62-2.952-2.952.19-5.714-.096-6-.572-.38-.571-.952-.857-1.238-.762-.38.096-2.476.286-4.666.572zm-.572 4.19c0 2.286-1.619 3.524-2.476 2-.857-1.333.095-4 1.429-4 .571 0 1.047.953 1.047 2zm-2.952 10.096c1.333.857 1.333 1.047 0 1.905-1.905 1.238-2.19 1.238-3.905.19-1.524-1.048-.762-3.143 1.143-3.143.666 0 1.905.476 2.762 1.048zm24.953-12c-2.572 2.476-4.096 6.476-3.429 8.285.762 2 10 1.905 11.62 0 .952-1.142.952-1.619-.096-2.285-1.048-.667-.952-1.429.286-3.81.857-1.619 1.238-3.238.952-3.619-1.428-1.429-7.429-.571-9.333 1.429zm5.047 1.523c0 1.334-3.238 6.381-4.095 6.381-1.238 0-1.238-2.571.095-5.047.953-1.715 4-2.762 4-1.334zm8.191-2c-2.667 1.81-2.952 3.429-.667 3.429 1.524 0 1.524.19 0 2.571-2.285 3.43-.571 5.81 2.953 4.191 1.81-.762 2.762-.762 4 .19 1.238 1.143 1.81 1.048 3.428-.38 1.81-1.62 2-1.62 4.477 0 2.476 1.619 2.762 1.619 4.667-.19 2-1.715 2-2.763.38-6.763-.666-1.619-.476-1.714 1.43-1.143 1.904.572 2.19.381 1.904-1.143-.381-2.19-4.762-3.047-6-1.143-.476.667-.572 2.858-.286 4.667.571 3.429.571 3.429-2.667 2.762-4.285-.857-4.38-1.143-2.476-4.095 3.048-4.667.572-4.953-3.429-.381-3.714 4.38-6.571 4.952-3.619.762 1.62-2.286 1.238-4.953-.762-4.953-.571 0-2.095.762-3.333 1.62zm-8.19 49.43c0 1.143-1.144 4.286-2.572 6.952-3.238 6.572-3.334 10-.095 10 2.285 0 8.666-5.809 8.666-7.904 0-2-1.333-4.096-2.666-4.096-1.143 0-1.334-.762-.857-3.428.571-2.857.38-3.524-.953-3.524-.952 0-1.524.857-1.524 2zm2.952 8.381c0 2-4 6.762-5.048 6.095-.571-.285 0-2.38 1.048-4.571 1.905-3.714 4-4.476 4-1.524zm78.382-9.048c-.857 2.286.286 3.334 1.81 1.81.952-.857.952-1.429 0-2.286-.857-.952-1.238-.762-1.81.476zm9.715-.38c-.762.475-1.143 1.237-.762 1.714.286.571-1.048 4.095-2.857 7.905-1.905 3.81-3.429 7.238-3.429 7.714-.095 2 1.905.19 5.048-4.572 2.286-3.523 3.524-4.666 3.714-3.523.19.952-.19 2.571-.762 3.714-2.286 4.19-.571 6.476 2.953 4 1.143-.762 1.143-1.143.285-1.524-.952-.38-.952-1.333.19-4.095 1.715-4 1.239-5.62-1.523-4.762-2.286.667-2.476-.667-.762-3.524 1.524-2.286.095-4.381-2.095-3.048zm-64.382.666c-1.239 1.238-.762 2.381.761 2.381.858 0 1.524-.667 1.524-1.524 0-1.524-1.143-2-2.285-.857zm35.715 3.62c-1.905 2.285-4.191 7.333-5.143 11.523-.381 1.714-.096 2.19 1.428 2.19 1.143 0 2.572-.666 3.334-1.428.857-1.048.857-1.524.095-1.524-1.905 0-1.238-2.952 1.143-5.333 2.19-2.19 3.524-7.715 1.905-7.715-.477 0-1.715 1.048-2.762 2.286zm-52.097 3.047c-.476.666-.857 2.38-.952 3.714-.095 1.333-.476 3.524-.857 4.762-1.143 3.524 1.047 2.667 3.524-1.333 1.142-1.905 3.523-4.19 5.143-5.048 2.19-1.143 2.762-1.905 2-2.667-.762-.762-1.524-.666-2.667.286-1.238.952-1.905 1.048-2.762.19-1.524-1.523-2.476-1.523-3.429.096zm12.381.19c-1.238.857-1.428 1.429-.666 1.715.952.285.952 1.333-.095 4.095-1.62 4.476-.19 7.048 2.571 4.667 1.143-.858 1.238-1.524.476-2-.857-.477-.762-1.524.381-3.715 1.429-2.857 1.334-6.286-.19-6.19-.381 0-1.524.666-2.477 1.428zm7.239.095c-1.048 1.239-1.048 1.715 0 2.381.952.667.952 1.43-.381 3.905-1.905 3.715-1.905 4.19-.286 4.096.667 0 2.667-2.286 4.476-5.048 3.429-5.143 6.667-6.095 3.62-.952-1.62 2.666-1.43 6.095.38 6 .381 0 1.905-.858 3.239-2 2.19-1.62 2.285-1.905.666-1.905-1.428 0-1.714-.476-1.143-1.81 1.81-4.286 1.715-6.286-.19-6.286-1.048 0-2.572.572-3.238 1.334-1.048.952-1.429.952-1.81 0-.667-1.81-3.81-1.62-5.333.285zm22.095-.857c-4.38.572-6 1.905-6 4.953 0 2.38-1.428 5.428-3.905 8.571-2.762 3.334 2.953 6.191 8.286 4.191 2.286-.857 2-5.143-.38-6.476-2.572-1.334-2.572-2.667 0-3.429 1.142-.381 2.952-2 3.904-3.714.953-1.62 2.095-2.953 2.476-2.858.286 0 .572-.285.667-.666.095-.953-.857-1.048-5.048-.572zm0 2.19c0 2.096-1.333 4.096-2.666 4.096-1.429 0-1.905-3.143-.667-4.38.952-.953 3.333-.763 3.333.285zm-3.047 12.573c0 1.523-2.762 2.761-4.096 2-1.333-.858-1.142-3.239.381-3.715 1.81-.666 3.715.286 3.715 1.715zm28-13.906c-1.143 1.334-1.143 1.715 0 2.381 1.143.762 1.143 1.143.096 2.381-1.334 1.62-1.143 5.62.285 6 .857.191 3.715-6.666 4-9.81.19-2.475-2.666-3.142-4.38-.952zm23.525.381c-1.239 1.429-1.429 2-.572 2 1.238 0 1.143 2.667-.476 6.286-1.333 3.334 2 1.715 4.762-2.285 3.238-4.667 5.524-5.334 3.333-1.048-.857 1.714-1.524 3.429-1.524 4 0 1.62 3.143 1.238 5.43-.476 1.618-1.238 1.713-1.715.666-2.381-1.048-.572-1.048-1.238-.286-2.857.667-1.143 1.143-2.762 1.143-3.62 0-1.81-3.048-2.095-4.762-.38-.952.952-1.524.952-2.476 0-1.715-1.715-3.238-1.524-5.238.761zm18 1.334c-4 4-4.762 8.19-1.524 8.952 1.048.286 2.762-.095 3.714-.857 1.715-1.238 1.62-1.333-.476-1.333-3.238-.095-2.762-1.524 1.334-4 2.19-1.238 3.428-2.667 3.238-3.715-.572-2.952-2.762-2.571-6.286.953zm9.62-2c-.572.762-.858 2.286-.477 3.428.286 1.143 0 2.381-.571 2.762-1.524.953-1.334 4.477.285 4.477.667 0 2.19-1.715 3.238-3.905 1.048-2.19 2.477-4 3.143-4 1.524-.096 1.62 2.571.286 3.428-.571.381-1.048 1.524-1.048 2.572 0 2.38 2.667 2.571 5.524.38 1.62-1.237 1.715-1.618.477-2.38-1.239-.762-1.239-1.238 0-3.524 1.81-3.524 0-5.62-3.143-3.714-1.524.952-2.381 1.047-3.143.285-1.524-1.428-3.238-1.333-4.572.19z"/>
</svg>
