<svg version="1.0" xmlns="http://www.w3.org/2000/svg" viewBox="0 0 622.611 421.792">
	<title>Fragments of English words displayed on five lines in the first document</title>
	<path d="M.026 5.42c0 4.952.095 7.047.38 4.761.191-2.285.191-6.38 0-9.047-.19-2.572-.38-.667-.38 4.285zm404.103 19.428c-.285.572-.285 1.524 0 2 .762 1.239-5.238 13.239-7.143 14.382-3.333 1.905-1.143 2.857 5.715 2.476 6-.286 7.333-.762 9.714-3.143 2.381-2.381 2.572-2.952 1.429-4.762-1.143-1.81-1.048-2.286.762-3.524 4.571-3.238.762-8.381-6.096-8.381-2.095 0-4 .476-4.38.952zm8.858 2.762c1.047.953-2.381 4.286-4.477 4.286-2.095 0-2.285-.38-.857-3.047 1.048-1.905 4-2.572 5.334-1.239zm-2.953 8.762c.667 1.81-2.667 5.524-4.952 5.524-2.096 0-2.762-2.38-1.429-4.952 1.238-2.381 5.524-2.762 6.381-.572zM204.411 27.04c-7.429 5.524-6.667 17.905 1.143 17.81 3.429 0 4.762-.953 6-4.19 1.714-4.572-1.048-8.668-5.81-8.763-2.38 0-2.38-.095-.571-2 .952-1.143 2.38-2 3.143-2 .762 0 1.333-.667 1.333-1.524 0-2-2-1.81-5.238.667zm3.714 9.714c.858 2.667-.38 5.143-2.571 5.143-2 0-3.62-4-2.476-5.904 1.143-1.81 4.38-1.239 5.047.761zm227.529-9.905c0 1.524.476 2.096 1.714 1.905.952-.19 1.81-1.047 1.81-1.905 0-.761-.858-1.619-1.81-1.81-1.238-.19-1.714.382-1.714 1.81zm-219.148 6c-1.333 1.048-2 2.191-1.619 2.667.477.381 1.334.19 2-.476 1.62-1.619 4.762-1.428 4.762.286 0 .857-1.619 2.762-3.523 4.286-4.858 3.904-4.477 5.238 1.523 5.238 3.81 0 5.143-.381 5.905-1.81 1.238-2.38.381-3.333-1.905-2.19-2.952 1.619-3.238-.19-.38-2.476 2.19-1.715 2.571-2.667 2-4.762-.477-2.191-1.239-2.762-3.524-2.762-1.62 0-3.905.952-5.239 2zm210.1-.952c-.762.476-2.476.667-3.714.381-3.143-.857-5.334 1.238-4.572 4.286.286 1.333 0 3.048-.667 3.905-1.047 1.238-1.047 1.714-.095 2.762 1.048.952 1.62.666 2.953-1.334 2-3.047 5.047-6.095 7.714-7.619 1.333-.857 1.62-1.524.952-2.19-.666-.762-1.619-.762-2.571-.19zm5.524.762c-.572.381-1.048 2.095-1.143 3.714-.095 1.715-.286 3.905-.476 5.048-.476 2.762 3.238 3.143 5.619.476 1.143-1.238 1.429-2 .571-2-.857 0-1.047-1.143-.571-4 .571-3.428.476-4-1.143-4-1.048 0-2.286.381-2.857.762zm149.146 1.143c-.953.952-1.62 2.667-1.62 3.905 0 1.143-.476 2.38-.952 2.667-.571.38-1.047 1.523-1.047 2.571 0 1.048-.762 2.286-1.715 2.857-2.666 1.429-.38 4.477 3.62 4.953 5.714.571 8.095-3.715 4.095-7.334-2-1.81-2-1.905.952-3.333 1.62-.762 3.238-2.19 3.524-3.238.38-.953 1.238-2 2.095-2.286 2.857-1.143 1.334-2.381-2.952-2.381-3.048-.095-4.953.476-6 1.619zm4.38 1.333c0 .667-.475 1.905-.952 2.762-.762 1.143-1.238 1.238-2.19.286-.953-.952-.857-1.524.095-2.762 1.524-1.81 3.048-2 3.048-.286zm-4.57 10.382c2.19.857 2 3.333-.382 3.333-2.19 0-3.428-1.429-2.571-2.953.762-1.142.857-1.142 2.952-.38zm13.142-10.572c-2.762 3.238-3.333 6.762-1.428 8.667 1.714 1.714 5.333-.381 7.428-4.286 1.048-1.81 2.191-3.048 2.667-2.762.476.286 1.524 0 2.286-.667 1.143-1.047 1.524-.952 1.524.286 0 .857-.476 1.905-1.048 2.19-.571.381-.952 1.715-.952 3.048 0 2 .476 2.476 2.476 2.476 2.667 0 3.143-.952 1.333-2.762-.857-.857-.571-2 .953-4.571 1.143-1.905 1.714-3.81 1.428-4.095-1.143-1.143-6-.477-7.333.952-1.143 1.429-1.334 1.429-2.095 0-1.429-2.381-4.381-1.81-7.239 1.524zm4.762-.286c.667 1.143-2.095 7.238-3.238 7.238-1.905 0-2.19-2-.571-4.952 1.524-2.953 2.857-3.81 3.81-2.286zm14.953-1.524c-.571.667-1.524 2.858-2.19 4.762-1.048 3.143-.953 3.715.952 5.239 2.571 2.095 4 1.428 7.429-3.239 2.571-3.524 3.238-6.476 1.619-7.428-1.334-.762-3.048 2.666-3.048 5.714 0 2.572-2.476 4.381-3.524 2.667-.38-.476.095-2.286.953-4 2.095-4 .38-6.953-2.191-3.715zm-508.01 51.62c.286 1.048-1.238 5.048-3.334 9.048-2.285 4.286-3.333 7.334-2.666 7.715.571.38 1.81-.381 2.762-1.62l1.714-2.285.667 2.095c.762 2.476 3.714 2.857 5.428.857 1.334-1.619.477-2.762-1.428-2-2.381.953-1.62-2.095.857-3.143 3.048-1.428 3.619-5.524.762-5.524-1.905 0-2.095-.38-1.524-3.524.667-3.142.476-3.523-1.524-3.523-1.714 0-2.095.476-1.714 1.904zm3.714 8.191c0 1.238-2.857 2.476-3.81 1.524-.285-.381 0-1.143.858-1.62 1.905-1.237 2.952-1.237 2.952.096zm-63.43-1.143c-2 2.19-.38 4 2 2.095 2-1.714 1.905.381-.19 3.62-1.524 2.285-1.524 2.666-.19 4 1.333 1.333 2 1.333 3.809.38 1.62-.857 2.476-.857 3.333-.095 1.905 1.905 4.381 1.238 7.048-1.904 3.143-3.81 4.19-6.858 2.667-8.382-1.429-1.333-3.048.762-3.048 4 0 2.286-2.666 5.048-3.714 4-.381-.38.19-2.285 1.143-4.19 1.524-2.762 1.619-3.714.666-4.667-.952-1.047-1.619-.762-3.142 1.143-1.048 1.238-1.905 3.143-1.905 4.095 0 .953-.667 2.286-1.429 2.953-2.19 1.81-3.048-.667-1.238-3.429.952-1.333 1.62-3.143 1.62-4 0-2.19-5.334-2-7.43.381zm22.382-.286c-1.143 1.239-1.048 1.715 0 2.381 1.143.667 1.143 1.239-.286 3.334-2 3.048-2.095 4.667-.38 4.667.666 0 2-1.334 2.952-3.048.952-1.62 3.047-3.81 4.762-4.762 3.047-1.714 4.095-4.19 1.714-4.19-.762 0-1.81.57-2.476 1.237-.953.858-1.524.858-2.477 0-1.523-1.619-2.285-1.523-3.81.381zm12.952 1.62c-1.81 2-2.857 4.285-2.857 6.095 0 2.571.19 2.762 3.238 2.476 1.715-.19 3.048-.762 2.762-1.333-.285-.572-1.047-.857-1.81-.667-2.57.572-1.142-2.571 1.715-3.81 2.953-1.238 4.476-3.428 3.524-5.047-1.143-1.81-3.62-.953-6.572 2.286zm10.382.19c-4.381 4.476-4.286 8.095.095 8.095 3.428 0 4.762-2.19 1.714-2.666-1.81-.286-1.905-.572-.762-2.858.667-1.333 2.19-2.666 3.429-2.857 1.238-.095 2.286-.952 2.286-1.714 0-2.476-3.143-1.524-6.762 2zM380.7 139.613c.381 2.762-1.047 5.238-2.952 5.238-2.572 0-3.238 1.143-1.62 2.476 1.334.952 1.239 1.524-.475 4.286-1.048 1.81-2.381 3.238-2.953 3.238-1.333 0-1.333-2.571 0-5.143.667-1.048.857-2.286.476-2.571-1.143-1.239-3.714 2.571-3.905 5.904-.095 3.239 0 3.334 3.905 3.43 2.19.094 4.762-.096 5.715-.287 2-.476 2.38-2.952.571-3.523-.762-.286.095-2.667 2.476-6.953 3.715-6.667 3.81-7.81.477-7.81-1.239 0-1.81.667-1.715 1.715zm-44.858 1.047c.19.953-1.143 4.762-2.952 8.572-1.81 3.714-3.048 7.143-2.667 7.714.952 1.524 2.952 1.143 4.953-1.047 1.619-1.81 1.619-2 .19-2-2 0-1.524-1.429 2.476-8.286 3.048-5.143 2.953-6.762-.285-6.762-1.43 0-1.905.571-1.715 1.81zm-16.572 7.62c-4.952 4.571-4.857 11.047 0 9.238 1.239-.476 1.334-.953.477-2.096-.953-1.047-.858-2.095.38-4.476.858-1.619 1.905-3.047 2.382-3.047 1.81 0 2 1.428.571 4.19-1.714 3.238-1.333 5.81.952 5.81 2 0 4.477-3.238 2.953-3.715-.953-.285-.857-1.333.38-3.81 1.81-3.904 1.81-3.904-1.904-4.856-2.095-.477-3.333 0-6.19 2.761zm23.049-1.334c-3.43 2.667-4.953 5.524-4.191 7.905.476 1.62 1.524 1.905 5.81 1.714 5.047-.19 5.238-.285 5.428-3.143 0-1.714.476-4.285.857-5.81.572-2.475.477-2.761-2.285-2.761-1.715 0-4.19.952-5.62 2.095zm4.095 1.62c.38 1.428-3.715 6.476-4.762 5.809-1.238-.762 2.095-7.62 3.428-7.143.477.095 1.143.762 1.334 1.333zm8.476-2.191c-1.524 1.81-1.619 2.857-.095 1.904.857-.476.952-.095.476 1.239-1.333 3.428-1.905 7.428-.952 7.333.476 0 2.19-2 3.81-4.476 2.952-4.381 5.428-6.096 4-2.762-.382.952-.953 3.048-1.239 4.571-.38 2.19-.095 2.667 1.524 2.667 2.667 0 5.143-2.762 3.429-3.81-.953-.666-.953-1.428.19-3.619.857-1.619 1.334-3.238 1.048-3.714-.762-1.238-3.81-.952-5.334.476-1.047.953-1.428.953-1.81 0-.57-1.714-3.523-1.524-5.047.19zm-127.717 48.477c-5.81 2.38-10.857 11.714-8.571 16 2.666 4.857 9.81 4.953 12.762.19.952-1.428 2.286-3.047 3.048-3.428 1.904-1.238 1.523-2.476-1.143-3.143-3.715-.857-5.715.286-5.048 2.953.476 1.714 0 2.571-1.62 3.523-5.333 2.858-6.57-6-1.523-11.428 2.667-2.858 7.048-3.524 7.905-1.143.952 2.476 3.714 1.81 3.714-.857 0-1.81-.762-2.477-3.143-2.953-3.714-.762-3.81-.762-6.38.286zm-133.621 4.857c-2.096 2.095-4.096 5.143-4.477 6.667-1.619 6.476 3.334 11.143 9.048 8.381 3.334-1.524 5.048-4.667 1.905-3.333-1.048.38-3.048.857-4.381.857-2.19.095-2.572-.381-2.857-3.715-.572-7.238 7.714-14.095 10.762-8.952.857 1.524 1.238 1.524 2 .38 1.619-2.57.095-4.095-4.095-4.095-3.334 0-4.667.667-7.905 3.81zm28.667 3.429c-2.953 3.047-3.62 4.095-2.572 4.762 1.143.666.953 1.81-.952 5.905-1.238 2.762-2.952 5.238-3.714 5.524-2.667 1.047-1.334 2.666 1.904 2.38 2.667-.285 3.239-.761 3.239-2.761 0-1.905.952-2.953 3.714-4.286 6-2.762 8.572-8.096 5.333-10.762-.857-.667-1.523-2.096-1.523-3.143 0-2.572-.858-2.19-5.43 2.38zm5.429 4c0 1.81-2.858 5.714-4.096 5.714-1.143 0-.285-3.714 1.334-5.714 1.333-1.62 2.762-1.62 2.762 0zm111.907-4.096c-1.715 1.62-1.81 2.286-.858 2.858 1.048.666 1.048 1.428.19 3.428-2.666 5.81-.57 6.19 3.43.667 1.523-2.19 3.81-4.476 5.047-5.048 3.429-1.524 2.857-3.333-.666-2.571-1.905.476-3.048.286-3.048-.381 0-1.714-1.81-1.238-4.095 1.047zm-132.765 3.43c-1.714 1.904-3.143 4-3.143 4.666 0 2.38 1.81 4.095 3.524 3.429 1.238-.477 1.429-1.048.667-1.905-1.334-1.715 1.143-7.81 3.238-7.81 2 0 2 1.333 0 5.143-1.62 3.143-1.238 4.857 1.047 4.857 1.905 0 3.905-2.571 2.572-3.428-.667-.381-.572-1.62.476-3.524 2.19-4.19 1.905-5.048-1.905-5.048-2.666 0-4.095.857-6.476 3.62zm421.627 43.143c-.952.286-1.714.857-1.714 1.238 0 .476-1.428 2.286-3.143 4-1.619 1.62-2.762 3.429-2.476 3.905.571.952-2.952 10.572-4.762 12.857-.476.762-1.714 1.238-2.762 1.238-2.19 0-2.571 1.905-.476 2.667 2.762 1.048 5.524-1.714 9.048-9.143 2.095-4.381 4.19-7.524 5.047-7.524 1.62 0 2-1.524.477-2.38-1.62-1.144.095-3.62 2.571-3.62 1.429 0 2.476-.571 2.476-1.333 0-1.62-1.81-2.381-4.286-1.905zm20.477.095c-.762.476-1.048 1.524-.762 2.286.286.857-.762 4.095-2.476 7.143-1.62 3.143-2.953 6.38-2.953 7.143 0 2.286 1.62 2.857 3.905 1.428 2.096-1.333 2.762-3.428 1.143-4-.476-.19.381-3.143 2-6.571 3.334-7.143 3.048-9.905-.857-7.429zm-215.338.952c-.095.381-.095 1.524 0 2.381.096.858-1.142 4.477-2.857 7.905-1.714 3.524-3.047 6.667-3.047 7.143 0 3.62 7.238-5.428 8.38-10.666.382-1.715.953-4 1.239-5.239.476-1.81.19-2.285-1.524-2.285-1.143 0-2.19.38-2.19.761zm15.43.762c-.763 2 .19 2.858 2.095 2.096 2-.762 2-2.19 0-2.953-.858-.38-1.715 0-2.096.857zm-25.525 3.905c-1.524 1.334-2.667 3.238-2.667 4.19 0 1.048-.476 3.334-1.238 5.144-1.714 4.095-.286 6 3.048 4.286 1.714-.953 2.095-1.715 1.524-4.096-.477-2.19-.096-3.238 1.428-4.667 2-1.619 3.048-7.333 1.334-7.238-.381 0-1.905 1.048-3.429 2.381zm58.382-.476c-.667 1.143-2.286 2-3.524 2-3.905 0-8.667 5.429-8.667 9.81 0 2.38.096 2.38 6.381 2.476 4.382 0 8.096-2.667 5.715-4.19-1.143-.667-1.048-1.524.762-4.953 2.19-4.19 2.762-7.143 1.428-7.143-.476 0-1.333.952-2.095 2zm-3.143 5.524c0 .762-1.143 2.667-2.476 4.19-2.286 2.572-2.476 2.667-2.572.762 0-2.19 2.572-6.476 4.096-6.476.476 0 .952.667.952 1.524zm132.86-3.143c-3.238 1.62-6.095 7.429-4.857 9.81.571 1.047 1.714 1.81 2.476 1.81 2.19 0 7.333-5.144 8-8.096.857-3.524-2-5.334-5.619-3.524zm2.095 4c0 2.286-1.619 4.667-3.238 4.667-1.048 0-.952-2.762.286-5.048 1.428-2.667 2.952-2.476 2.952.381zm40.953-2.38c-3.142 3.047-3.81 7.047-1.619 8.856 1.81 1.524 5.715-.666 7.62-4.285.857-1.715 1.714-3.239 1.81-3.429.19-.286.761.095 1.428.667.857.952.857 1.81-.095 3.619-2.572 4.762 0 5.048 4 .476l3.81-4.381-.572 3.81c-.667 4.38.952 4.952 4.762 1.714 2.095-1.62 2.095-1.905.666-2-1.619 0-1.714-.286-.38-2.762 2-3.81.666-6-2.572-4.572-1.62.762-2.857.762-4 0-1.333-.857-2.19-.666-3.714.762-2 1.715-2.191 1.81-3.905.19-2.572-2.285-3.905-2.095-7.239 1.334zm4.096 1.618c0 2.476-2 5.429-3.62 5.429-1.142 0-1.333-.572-.856-2.286 1.333-4.19 4.476-6.476 4.476-3.143zm28-3.81c-4.571.572-6 1.81-6 5.334 0 1.524-.476 3.048-1.047 3.333-1.429.953-.096 3.143 2.762 4.477 2.285 1.047 2.38 1.333 1.047 2.666-1.619 1.715-4.762.953-4.762-1.142 0-1.715-1.619-1.905-2.571-.381-1.715 2.762 4.476 5.047 8.952 3.333 2.286-.857 2-5.143-.38-6.381-2.858-1.524-2.572-2.667.856-3.81 1.62-.571 3.239-2 3.524-3.143.381-1.142 1.334-2.095 2.096-2.095.857 0 1.523-.667 1.523-1.428 0-.858-.571-1.43-1.333-1.334-.667.095-2.762.286-4.667.572zm0 3.144c0 2.19-1.523 3.523-3.047 2.571-.667-.381-.667-1.238 0-2.571 1.333-2.477 3.047-2.477 3.047 0zM336.7 258.758c0 1.048-.666 3.429-1.428 5.238-2.286 5.62.19 8 3.905 3.81 1.523-1.62 1.619-2.19.571-2.858-1.048-.666-1.048-1.238-.095-2.952.666-1.238.952-2.857.571-3.714-.762-2-3.524-1.715-3.524.476zm8.667-.762c-1.81 1.048-2.38 3.905-.666 3.905.571 0 .285 1.333-.572 3.047-.857 1.62-1.333 3.43-.952 4 .857 1.334 3.81 1.239 5.238-.19.857-.857 1.524-.857 2.667.095 3.714 3.048 8.952-1.524 6.666-5.81-1.523-2.761-1.428-3.142 1.048-3.142 1.714 0 1.905-.286.857-1.524-1.619-1.905-3.428-1.905-5.048.095-1.047 1.238-1.047 2.286-.19 4.667.667 1.714 1.143 3.238.952 3.333-.095.096-1.904-.095-4-.285-3.047-.381-3.714-.858-3.143-2.19 1.143-2.477 1.048-6.382-.095-6.763-.571-.095-1.81.19-2.762.762zm42.287.857c-4 4.095-3.81 10 .38 10 2.572 0 7.62-4.952 7.62-7.428 0-4.762-4.381-6.096-8-2.572zm5.047 1.905c0 1.619-3.81 5.714-4.571 4.952-.857-.857 2.19-5.81 3.524-5.81.571 0 1.047.382 1.047.858zm6.858-.952c-1.905 1.904-2.857 4-2.857 5.904 0 3.429 1.428 4.381 4.666 2.858 2.858-1.239 2.953-3.048.19-2.381-1.809.476-2 .285-1.428-2.096.953-3.905 1.81-4.38 5.905-3.619l3.524.667-1.429 2.857c-.857 1.62-1.333 3.429-.952 3.905.762 1.333 3.81 1.238 5.143-.095.762-.762 1.333-.762 1.81 0 .952 1.619 3.619 1.333 5.619-.477 1.428-1.333 1.523-2 .666-3.523-.952-1.429-.952-2.096 0-3.048.667-.667 1.238-1.81 1.238-2.572 0-2.285-2.19-1.333-5.619 2.477l-3.238 3.714.572-3.714c.476-3.238.285-3.81-1.429-3.81-1.048 0-2.476.572-3.238 1.333-1.048.953-1.429.953-1.715 0-.857-2.19-4.38-1.428-7.428 1.62zm147.622 47.048c-.857 1.333.38 3.238 1.524 2.476 1.238-.762 1.238-3.428 0-3.428-.477 0-1.239.476-1.524.952zM71.55 309.616c-.095.476-.19 1.905-.286 3.238-.095 2-.761 2.667-2.857 2.857-5.238.572-10.38 10.286-6.286 11.81 2.381.953 3.62-.476 2.286-2.571-1.428-2.381.381-7.048 2.762-7.048 1.905 0 1.905 1.333 0 4.952-1.333 2.477-1.333 2.953.095 4.096 1.239 1.047 1.81.952 3.143-.476 1.238-1.239 1.334-1.905.572-2.286-.762-.286-.19-2.476 1.714-6.858 1.62-3.523 2.953-6.857 2.953-7.428 0-1.143-3.905-1.429-4.096-.286zm492.296 1.62c-1.238 1.237-2.19 2.856-2.19 3.428 0 .666-.763 2.762-1.715 4.667-2 4.285-.857 6.476 2.571 4.666 1.62-.857 2-1.81 1.524-4-.476-2.286-.095-3.238 1.524-4.286 1.333-.762 2.095-2.285 2.095-4.095 0-3.333-.952-3.429-3.81-.38zm-38.763 2.094c-1.714 1.239-1.81 1.81-.667 4.667 1.334 3.715.762 5.524-1.333 3.81-1.81-1.429-2.857-.572-2.095 1.524.38.857 1.428 1.523 2.476 1.523 3.048 0 4.476-2.476 3.714-6.571-.476-2.381-.285-3.334.381-2.953 1.81 1.143 3.334-.38 2-2-1.428-1.81-2-1.81-4.476 0zm9.81-.19c-1.429 1.429-1.62 4.667-.286 6.667 1.238 2.095.19 3.428-1.524 2-1.81-1.429-2.857-.572-2.095 1.524.38.857 1.429 1.523 2.476 1.523 3.048 0 4.381-2.38 3.62-6.38-.572-3.048-.382-3.525.952-2.953 1.047.38 1.619.095 1.619-.952 0-.762-.667-1.715-1.62-2.096-2-.762-1.809-.762-3.142.667zm17.81.667c-.667 1.333-.762 2.857-.096 4.571 1.524 4 1.334 4.762-1.047 3.429-1.81-.953-2-.762-1.715.762.191.952 1.048 1.904 1.905 2.095 2.286.476 5.143-2.667 4.381-4.667-1.904-4.476-1.81-5.333.381-4.667 2.381.762 2.857-.38.953-2.19-1.715-1.81-3.62-1.524-4.762.667zm20.095.19c-4.571 2.762-6.762 9.048-3.524 10.286 2.191.857 3.715-.286 2.381-1.81-2-2.476 1.905-9.047 4.096-6.857.666.667.38 2.095-.762 4.095-1.334 2.191-1.524 3.43-.762 4.191 1.524 1.429 4.667.095 4-1.714-.286-.762.095-2.953.857-4.858.762-1.81 1.143-3.523.762-3.714-2.571-1.428-4.286-1.333-7.048.381zm12.572-1.048c-1.143.762-1.524 1.81-1.143 3.43.286 1.237.095 3.332-.571 4.57-2.381 4.382.571 3.81 4.095-.857 3.238-4.38 3.429-4.857 1.905-6.476-1.905-2-1.905-2-4.286-.667zm7.524.19c-.571.572-.857 1.62-.571 2.287.285.762-.286 2.666-1.143 4.38-2.381 4.667-.858 6.382 2.952 3.525 1.62-1.239 1.714-1.715.667-2.381-1.143-.667-1.048-1.334.285-3.905.858-1.62 1.62-3.238 1.62-3.524 0-1.048-2.858-1.333-3.81-.381zm10.953.287c-1.239.857-2.858 2.952-3.715 4.571-2.571 4.953.286 9.334 3.524 5.429 1.048-1.238.952-1.524-.38-1.524-.858 0-1.62-.476-1.62-1.048 0-2.19 3.333-6 5.238-6 1.048 0 1.715-.476 1.524-1.143-.571-1.904-2.095-1.904-4.571-.285zm10.666-.477c-2.762 1.62-6.095 7.715-5.333 9.905.952 3.048 7.524 2.477 7.524-.666 0-.953-.667-1.238-2-.762-2.857.857-2.572-1.334.286-2.476 3.047-1.143 5.047-3.715 4.285-5.524-.666-1.715-2.38-1.905-4.762-.477zm-71.62.572c-1.524.667-1.62 3.048-.19 3.524.57.285.57 1.524-.286 3.524-1.429 4-.572 5.047 2.952 3.428 1.81-.857 2.286-1.428 1.429-2-.857-.571-.953-1.428-.19-3.524 1.904-5.047.666-6.666-3.715-4.952zm-489.153 3.048c-1.238.857-2.095.952-2.095.38 0-1.904-4.857-1.142-6 .953-.857 1.619-.762 2 .476 2 1.333 0 1.333.476-.19 3.524-2 4.286-.858 5.905 1.81 2.476 4.19-5.238 4.952-6 6-6 .666 0 .476 1.048-.572 2.571-3.048 4.667.286 7.524 4 3.43 1.619-1.81 1.619-2.001.095-2.001s-1.524-.286-.19-2.952c.857-1.62 1.619-3.334 1.619-3.905 0-1.715-2.762-2-4.953-.476zm-21.238 2.285c-2.19 2.19-2.857 3.81-2.667 5.81.286 2.476.667 2.762 4.286 2.762 4.38.095 7.524-1.048 7.524-2.572 0-.571-.476-.761-.953-.476-1.523.953-1.238-1.81.381-4 2.477-3.238 1.905-4.476-2-4.476-2.666 0-4.38.762-6.571 2.952zm5.143.572c0 1.905-2.953 6.476-4.096 6.476-1.428 0-1.047-3.333.667-5.81 1.81-2.571 3.429-2.857 3.429-.666zm164.48 47.43c.38 1.237-.477 3.904-2.477 7.333-3.143 5.524-3.714 8.19-2 9.143 1.238.857 5.048-1.524 5.048-3.048 0-.667-.477-1.333-1.048-1.524-1.143-.38 2.381-9.333 4-10.38 2-1.239.953-3.525-1.524-3.525-2.095 0-2.476.381-2 2zm28.857 1.809c-2.762 4-5.333 10-5.333 12.286 0 2.19 2.857 2.667 4.762.762 1.714-1.62 1.523-2.857-.286-2.857-1.334 0-1.334-.286 0-2.953.857-1.619 2.286-3.048 3.047-3.048.953 0 1.524-.952 1.524-2.857 0-4.095-1.524-4.667-3.714-1.333zm-23.43 5.333c-4.952 5.334-3.142 10.667 2.668 8 3.238-1.428 6-7.714 4.38-9.714-1.809-2.19-3.904-1.62-7.047 1.714zm5.144-.095c0 2.381-3.048 8.095-4 7.524-1.524-.952-1.238-3.714.476-6.286 1.62-2.38 3.524-2.952 3.524-1.238zm6.476-2c-.38.571-.38 2.857 0 4.952.572 3.62.476 3.905-1.428 3.334-1.429-.381-2.096 0-2.096.952 0 2.096 3.524 2.857 5.62 1.334 1.238-.953 1.523-2.19 1.142-4.953-.476-2.762-.285-3.619.762-3.619.857 0 1.524-.667 1.524-1.524 0-1.714-4.571-2.095-5.524-.476zm185.242 49.715c1.238.19 3.238.19 4.476 0 1.238-.285.19-.476-2.19-.476-2.476 0-3.524.19-2.286.476zm16.477 0c3.142.19 8.38.19 11.524 0 3.142-.19.571-.38-5.715-.38-6.38 0-8.952.19-5.81.38z"/></svg>