<?xml version="1.0" encoding="utf-8"?>
<svg xmlns="http://www.w3.org/2000/svg" version="1.0" viewBox="0 0 640 268">
	<title>A summary, in English, of the information provided by the three documents.</title>
	<path d="M8.056 1.017c-2.476.286-3.524.762-2.762 1.333.857.572 1.333 3.905 1.333 10.763 0 9.905-.095 9.905-2.571 9.905-1.524 0-2.477.571-2.477 1.523 0 2.858 3.048 2.858 5.81.096 2.476-2.381 2.762-3.429 3.048-11.905.285-6.762.762-9.43 1.905-10.286C14.437.922 12.818.35 8.056 1.017zm106.764.476c-2.572 1.905-2.857 4.19-.762 6.953 1.238 1.619 1.238 2.19-.572 4.38-1.714 2.191-1.81 2.763-.571 4.572 1.81 2.762 7.238 3.334 9.714 1.048 2.381-2.095 2.477-5.143.286-7.62-1.428-1.618-1.524-2.19-.286-4.38 2.572-4.857-2.952-8.381-7.81-4.953zm5.619 2.762c-.381 2.667-3.333 3.524-4.19 1.238-.858-2.19 0-3.524 2.476-3.524 1.523 0 1.904.572 1.714 2.286zm.095 9.62c.762 1.428.667 2.285-.476 3.142-1.905 1.62-4.476.572-4.476-1.81 0-3.618 3.238-4.475 4.952-1.333zm10-11.144c-4.19 3.81-5.524 9.715-3.143 13.81 2.191 3.62 5.905 4.286 9.144 1.715 4.285-3.43 1.81-11.239-3.62-11.239-2.857 0-2.19-2.19 1.239-4 1.333-.762 2.476-1.714 2.476-2.19 0-1.715-3.143-.762-6.096 1.904zm4.477 8.572c1.333 2.19-.381 5.238-3.048 5.238-1.333 0-2-.857-2.19-2.952-.477-4.381 2.952-5.905 5.238-2.286zm123.335-2.571c.191 4.857.572 9.333.762 10 .286.762 2.096 1.238 4.381 1.238 2.953 0 4.381-.476 5.524-2.19 3.239-4.667 1.048-10.763-3.904-10.763-2.381 0-3.524-1.714-3.524-5.048 0-1.238-.667-2-1.81-2-1.619 0-1.81.858-1.429 8.763zm8.191 2.571c.953 2.571-.38 5.714-2.38 5.714-1.62 0-2.858-4.095-2-6.38.951-2.382 3.332-2 4.38.666zm17.048-9.334c0 1.524.476 2.096 1.714 1.905.953-.19 1.81-1.047 1.81-1.905 0-.761-.857-1.619-1.81-1.81-1.238-.19-1.714.382-1.714 1.81zM316.824.827c-1.048.666-1.048 1.142.19 2.19 2.096 1.714 2.19 12.286.096 14-.858.667-1.239 1.62-.953 2.096.953 1.524 11.81 1.047 14.19-.667 2.287-1.62 3.049-5.81 1.239-6.953-.476-.285-.667-2.476-.38-4.857.57-3.81.38-4.286-2.096-5.428-2.953-1.334-10.381-1.524-12.286-.381zm10.762 4.571c0 2.572-2.667 4.286-4.286 2.762-1.428-1.524.19-5.143 2.381-5.143 1.334 0 1.905.667 1.905 2.381zm-.19 6.476c2 1.239.476 5.143-1.905 5.143-2.19 0-3.429-2.19-2.572-4.476.667-1.714 2.476-1.905 4.476-.667zm18.38-10.095c.477 2.571 3.81 2.857 3.81.286 0-1.429-.666-2.096-2.095-2.096-1.428 0-1.905.572-1.714 1.81zm60.288-.762c-.857 1.333.285 2.953 2.095 2.953.762 0 1.429-.858 1.429-2 0-2-2.381-2.667-3.524-.953zm136.86 1.143c-4.762 2.381-5.715 10.095-1.715 14.762 2.667 3.238 5.048 3.715 11.239 2.476 2.476-.476 3.143-1.142 3.143-2.952 0-1.238.476-2.572 1.047-2.952 2-1.239.857-2.477-2.571-2.477-3.238 0-3.429.19-2.286 1.905 1.619 2.667-.476 5.048-4.381 5.048-2.19 0-3.143-.572-3.905-2.667-1.524-3.905-.476-11.333 1.714-12.953 2.096-1.523.762-1.619-2.285-.19zm7.714-.286c0 .953 3.238 4.096 4.286 4.096 1.428 0 .571-3.81-.953-4.381-2.19-.762-3.333-.762-3.333.285zm10.476 7.905c0 4.762.381 9.048.858 9.429 1.238.857 3.714-.19 3.047-1.238-.285-.476-.476-4.476-.571-8.858 0-6.857-.286-8.095-1.714-8.095-1.43 0-1.62 1.238-1.62 8.762zm-207.337-4c-1.714 4.19-.19 13.62 2.19 14.096 2.762.476 4.572-1.715 2.381-2.953-2.285-1.238-2.285-6.476-.095-7.714 1.524-.857 1.429-1.143-.285-3.524-2.381-3.334-2.858-3.334-4.191.095zM67.581 7.017c0 3.715.571 4 4.286 2.476 2.476-1.047 2.19 1.62-.762 7.524-3.048 5.905-3.143 8-.667 8 1.429 0 2.19-1.142 3.048-4.761.666-2.572 2.095-6.762 3.143-9.143 1.142-2.381 1.904-4.477 1.714-4.572-.19-.19-2.667-.476-5.524-.857-4.762-.476-5.238-.381-5.238 1.333zm33.048-.095c0 .571.286 1.238.762 1.524 1.048.571.857 7.333-.286 9.81-.571 1.523-.19 1.714 2.667 1.714h3.333V6.065h-3.238c-1.81 0-3.238.38-3.238.857zm42.477.667c-1.905 1.904-.952 4.095 1.048 2.38.762-.666 2.19-.857 3.047-.57 1.429.57 1.143 1.333-2.19 4.666-4.572 4.667-3.81 6.19 2.667 5.81 3.238-.286 4.476-.858 4.762-2.096.19-1.238-.381-1.81-2-1.81h-2.191l2.286-2.38c1.714-1.81 2.095-3.143 1.619-5.048-.476-2.095-1.238-2.571-4-2.571-1.905 0-4.096.761-5.048 1.619zM16.342 12.732c.285 3.143.952 6 1.428 6.38.476.286 2.762.477 5.048.477l4.286-.095-.381-5.524c-.381-6.381-.667-6.953-3.048-6.953-1.524 0-1.714.667-1.333 4.953.38 4.095.19 5.047-1.048 5.047s-1.714-1.238-1.905-4.762c-.19-3.428-.762-4.762-2-5.047-1.428-.286-1.619.38-1.047 5.524zm13.714.38c0 3.239.476 5.905 1.048 6 .571 0 3.143.286 5.714.477l4.762.38v-5.333c0-6.38-1.047-7.428-7.048-7.428h-4.571l.095 5.905zm7.524 1.048c0 2.762-.38 3.905-1.238 3.62-1.429-.477-2.19-5.144-1.333-7.43 1.047-2.666 2.571-.285 2.571 3.81zm8.572-4.952c-3.429 4.857-.667 10.762 5.047 10.762 2 0 5.524-2.857 3.715-3.048-.476-.095-1.905-.19-3.334-.286-1.428-.095-2.571-.857-2.762-1.904-.285-1.334.286-1.715 3.143-1.715 2.858 0 3.62-.38 3.62-1.81 0-4.476-6.763-5.809-9.43-2zm226.004-1.429c-.285.286 0 1.429.572 2.476.571 1.143.762 3.81.476 5.905-.572 3.524-.476 3.81 1.714 3.81 3.238 0 3.62-.572 2.381-4-1.333-3.334-.571-4.477 3.62-5.524l2.857-.667-.381 4.857c-.286 4.667-.19 4.858 2.19 4.858 1.714 0 2.381-.381 2.095-1.524-.285-.762-.476-3.524-.571-6V7.493l-7.238-.095c-3.905-.095-7.334 0-7.715.381zm20.096 1.048c-.857.952-1.429 3.238-1.429 5.143.096 2-.19 5.238-.571 7.333-.667 3.334-.476 3.81 1.714 4.857 1.62.762 3.715.762 6.286.19 3.143-.761 3.905-1.428 4.19-3.523.191-2.381-.19-2.857-4-4l-4.19-1.238 3.143-.762c1.905-.572 3.333-1.714 3.81-3.048.38-1.238 1.333-2.762 2.19-3.333 2.476-1.81.571-3.048-4.667-3.238-3.524 0-5.428.38-6.476 1.619zm4.952 1.714c.381.762.286 2.19-.095 3.143-.571 1.524-.762 1.524-2.095.19-.857-.857-1.238-2.285-.857-3.142.762-2.096 2.285-2.191 3.047-.19zm1.429 12.477c0 .571-1.143.952-2.571.952-1.334 0-2.477-.381-2.477-.952 0-.572 1.143-1.048 2.477-1.048 1.428 0 2.571.476 2.571 1.048zm36.858-15.334c0 .19-.095 2.952-.095 6.095-.096 5.429.095 5.715 2.285 5.715s2.381-.381 2.096-4c-.286-3.62-.096-4.096 2.762-5.143l3.047-1.143v5.428c0 5.048.19 5.334 2.477 5.334 2.666 0 4.19-1.429 2.571-2.476-.571-.286-1.048-2.858-1.048-5.524V7.017l-6.952.095c-3.905.096-7.048.286-7.143.572zm27.334 0c-1.429.571-1.715 4.286-.286 4.286.476 0 .286 1.238-.476 2.762-1.905 3.619-.476 5.047 4.857 4.857 5.714-.286 7.238-1.238 5.334-3.429-.858-.857-1.62-3.238-1.81-5.143-.286-3.143-.667-3.524-3.333-3.714-1.715-.095-3.62.095-4.286.38zm4.762 3.333c0 .572-.667.953-1.524.953-.762 0-1.429-.381-1.429-.953 0-.571.667-1.047 1.429-1.047.857 0 1.524.476 1.524 1.047zm7.905-3.619c-.19.286-.286 3.143-.096 6.476l.381 6H387.682l-.666-5.142c-.381-2.858-1.143-5.81-1.715-6.477-.857-1.143-8.857-1.81-9.81-.857zm7.524 4.19c.857 2.191-.477 6.572-1.81 6.191-2.19-.762-2-7.81.286-7.81.476 0 1.143.763 1.524 1.62zm7.143-2.856c.476.952.857 3.904.762 6.571 0 4.286.19 4.667 2.19 4.667 2.095 0 2.286-.381 2.095-4.667-.095-3.619.19-4.762 1.429-4.762 1.048 0 1.429 1.143 1.429 4.381 0 4.381 1.142 5.81 3.904 4.762 1.143-.38 1.143-1.619.19-6.381l-1.142-5.81-5.81-.285c-5.333-.286-5.81-.096-5.047 1.524zm14.952 0c1.429 3.523 1.62 6.095.572 8.095-.953 1.714-.762 2.19.857 2.667 2.38.762 5.905-.858 4.19-1.905-.666-.381-1.142-2.953-1.142-5.62 0-4.666-.19-4.952-2.572-4.952-2.095 0-2.476.381-1.905 1.715zm9.143-.191c-.952.857-1.619 2-1.619 2.572 0 1.333 2.286 1.142 3.715-.286.666-.667 1.523-.762 2-.381.38.476.095 1.047-.667 1.333-2.381.857-5.238 4.286-4.857 6.096.19 1.238 1.524 1.714 6 1.904 6.095.19 7.81-.952 5.429-3.619-.858-.857-1.62-3.238-1.81-5.143-.286-3.143-.667-3.524-3.524-3.81-1.81-.19-3.714.382-4.667 1.334zm156.575-.476c-2.19.857-3.143 3.905-1.238 3.905.571 0 1.047-.381 1.047-.953 0-.571.762-1.047 1.81-1.047 1.524 0 1.905.762 1.905 3.524 0 2.095-.572 3.619-1.524 4-1.048.38-1.333 0-.952-1.429.285-1.143.19-2.286-.286-2.571-1.143-.667-3.238 2.19-2.857 4.095.285 1.524 1.81 1.81 9.619 2 6.667.095 9.524-.19 10.286-1.143 1.714-2.095.666-4.762-2.286-6.19-3.524-1.715-3.62-3.524-.095-2.572 1.905.476 2.476.286 2.19-.667-.666-2.095-4.476-2.095-6.286-.095-2 2.19-1.238 4.476 2 5.905 1.334.667 2.477 1.81 2.477 2.667 0 1.714-1.62 2-2.572.476-.38-.572-1.428-.953-2.285-.857-3.715.285-4.191-.096-4.191-4.096 0-2.857-.476-4.19-1.905-4.952-2.286-1.238-1.905-1.238-4.857 0zm38 .667c-3.142 2.761-3.618 5.619-1.142 8.666 3.524 4.477 10.952 2.381 10.952-3.238s-5.81-8.857-9.81-5.428zm5.81 2.857c1.143 3.143-.476 6.667-2.857 6.19-1.714-.285-2.762-4.666-1.81-7.333.858-2.286 3.62-1.62 4.667 1.143zm7.239-3.81c-.953.286-.858 1.143.19 3.524.667 1.81 1.81 4.476 2.381 6 .952 2.476 3.143 3.81 3.143 2 0-.476.476-1.428 1.048-2.286.857-1.238 1.238-1.142 2.857.953l1.905 2.38 2.19-5.142c1.238-2.857 2.667-5.238 3.143-5.238.571 0 .667-.381.381-.953-.381-.571-1.524-1.047-2.571-1.047-1.43 0-1.905.762-1.905 2.571 0 1.524-.476 2.286-1.048 2-.571-.38-.952-1.524-.952-2.571 0-1.429-.762-2-2.572-2-2.19 0-2.476.38-1.81 2.666.477 2 .286 2.572-.761 2.19-.762-.285-1.524-1.428-1.715-2.57-.285-2.191-1.904-3.239-3.904-2.477zM593.59 9.493c-.762.858-1.047 2.762-.666 4.381.285 1.62.285 3.239-.096 3.62-.38.285-.762 2.38-.952 4.666l-.286 4 5.81-.38c5.048-.191 5.714-.477 6-2.477.286-2.19-.571-2.952-6.286-4.762-1.619-.571-1.714-.762-.476-1.524s1.143-1.142-.381-2.285c-1.333-.953-1.714-2-1.238-3.524.571-1.81 1.048-2 2.762-1.143 1.524.857 1.81 1.714 1.333 3.619-.38 1.81-.286 2.381.667 2.095 1.524-.476 4.762-6 4.095-7.047-.762-1.334-8.952-.762-10.286.761zm6.762 13.81c-.666 1.905-5.428 2.096-6.095.286-.476-1.238.19-1.62 2.952-1.62 2.381 0 3.429.477 3.143 1.334zm-518.01-6.571c-.381.666-.286 6 .095 7.905.095.38 1.048-.096 2.19-1.143 2.667-2.381 2.667-7.524 0-7.524-1.047 0-2.095.38-2.285.762zm4.762 28.857c0 8.953.095 9.524 2 9.239 1.238-.19 1.905-.953 1.714-2.096-.476-2.38 1.429-2.19 2.762.286.667 1.238 2.096 2 3.62 2h2.57l-2.57-3.048c-3.144-3.714-3.239-4.571-.572-6 2.667-1.428 2.476-2.952-.571-2.952-1.81 0-2.477.571-2.477 2 0 1.143-.666 2-1.524 2-1.142 0-1.428-1.238-1.428-5.524 0-4.571-.381-5.524-1.81-5.524-1.524 0-1.714 1.143-1.714 9.62zm34.477-8.666c0 .571.476 1.238 1.047 1.619 1.62 1.047 1.048 3.428-.952 3.428-2.762 0-7.048 3.905-7.048 6.381 0 4.477 2.667 6.667 7.905 6.667 4.762 0 7.143-1.238 5.048-2.476-.571-.381-.952-4.19-.952-8.572 0-7.81-.096-8-2.572-8-1.333 0-2.476.476-2.476.953zm.952 8.571c1.81 2.19.953 7.048-1.333 7.048-2.857 0-4.286-2.857-2.857-5.905 1.333-2.952 2.476-3.238 4.19-1.143zm249.053-7.905c0 .953.667 1.429 1.714 1.238 2.476-.476 2.762-2.857.381-2.857-1.238 0-2.095.667-2.095 1.62zm135.24 0c-1.237.857-2.19 2.572-2.19 3.81 0 2.571 2.762 5.619 5.143 5.619 2.667 0 6 3.333 5.238 5.238-.857 2.381-4 2.19-7.524-.286l-2.857-2.095v2.476c0 2.191.476 2.477 4.953 3.048 5.428.762 7.143-.095 8.38-4 .858-2.762-2.095-6.381-6.476-7.81-2.666-.857-3.428-1.619-3.428-3.619 0-3.238 3.905-4 5.524-1.047 1.333 2.571 3.047 2.666 3.047.19 0-3.143-6.19-4.095-9.81-1.524zm52.287 7.905c0 8.286.19 9.524 1.715 9.524 1.238 0 1.714-1.047 2-4.762.19-3.619.666-4.762 2.095-5.048 1.62-.285 1.81.19 1.524 4.477-.286 4.286-.095 4.857 1.905 5.143 2 .285 2.095 0 1.619-4.953-.667-5.714-2.286-7.905-5.334-7.143-1.524.381-2-.19-2.19-2.857-.19-2-.953-3.429-1.81-3.62-1.333-.285-1.524 1.334-1.524 9.24zm-8.38-4.762c-1.43 2.667-1.525 9.81-.096 12.381.571 1.048 1.905 1.905 2.952 1.905 2.381 0 2.477-.667.381-2.762-1.523-1.524-1.523-4.762 0-8.286.381-.857 0-2.38-.761-3.428-1.334-1.81-1.43-1.81-2.477.19zM44.246 42.637c-.381.38-.667 1.81-.667 3.143 0 1.333-.476 2.095-1.047 1.714-.572-.38-.762-1.524-.381-2.571.476-1.524.095-1.905-2-1.905-2.096 0-2.572.476-2.572 2.476 0 1.429-.476 2.476-.952 2.476-.572 0-1.048-.857-1.048-2 0-2.19-2.19-3.524-4.38-2.666-1.239.476-1.144 1.238.475 4.38 1.048 2.096 1.905 4.286 1.905 4.953 0 .572.667 1.714 1.524 2.381 1.238 1.048 1.619.762 2.571-1.619 1.048-2.762 1.143-2.857 2.477-.952.762 1.047 1.428 2.285 1.428 2.762 0 .476.381.762.762.762 1.143 0 6.381-11.905 5.715-12.953-.667-1.143-2.858-1.333-3.81-.381zM63.2 44.066c-2.953 2.38-3.334 5.428-1.048 8.762 1.905 2.666 7.905 3.143 8.857.571.477-1.238 0-1.429-2.285-.952-1.905.476-3.239.19-4.096-.857-1.81-2.191-.38-3.62 3.524-3.62 4 0 4.572-2 1.238-4.38-2.857-2-3.047-2-6.19.476zm3.905.952c.285.571-.096.952-1.048.952-.857 0-1.333-.38-.952-.952.285-.571.761-1.048.952-1.048.19 0 .667.477 1.048 1.048zm37.524-1.714c-2.857 1.428-3.905 6.285-2 9.714.857 1.62 1.905 2 4.667 1.81 2-.19 3.81-.953 4.095-1.715.286-.952-.095-1.238-1.619-.857-1.143.286-2.952-.095-3.905-.857-1.524-1.143-1.619-1.429-.285-2.381.857-.476 2.761-.952 4.285-.952 3.143-.096 3.334-.762 1.143-3.81-1.81-2.571-2.952-2.762-6.38-.952zm2.953 1.714c0 .571-.477.952-1.048.952-.572 0-.762-.38-.476-.952.38-.571.857-1.048 1.047-1.048.286 0 .477.477.477 1.048zm238.004-2.286c-5.428 2-6.666 7.81-2.38 11.239 3.523 2.761 5.809 2.571 8.285-.572 2.857-3.619 2.667-6.762-.571-9.333-2.762-2.191-2.953-2.191-5.334-1.334zm3.524 6.286c0 2.857-.38 3.524-2 3.524-1.619 0-2.095-.762-2.38-3.81-.287-3.524-.096-3.81 2-3.524 2 .286 2.38.953 2.38 3.81zm6.953-.19.19 6.666 4.381.096c7.715.19 8-.096 7.334-5.334-.857-6.286-2.572-8.095-7.81-8.095h-4.286l.19 6.667zm7.333.476c-.38 3.524-3.047 4.571-3.619 1.428-.476-2.666.476-4.762 2.381-4.762 1.143 0 1.524.858 1.238 3.334zm8.096-7.048c-.096.19-.19 3.048-.286 6.476l-.19 6.286h2.857c2.476 0 2.762-.286 2.095-1.714-.381-.953-.762-3.334-.857-5.334-.096-3.714-1.048-6-2.572-6-.571 0-.952.19-1.047.286zm8.952 1.714c-1.333 1.048-2 2.19-1.619 2.572.381.476 1.429.19 2.286-.572 1.143-.857 1.905-.952 2.667-.19.761.762.19 1.524-2 2.571-3.143 1.715-4.382 3.715-3.334 5.429.572.857 7.334 1.714 10.857 1.333 1.715-.19 1.62-2.571-.19-4.095-.857-.667-1.524-2.476-1.524-3.905 0-4.952-3.143-6.38-7.143-3.143zm3.143 7.048c0 .572-.476.952-1.048.952-.571 0-.761-.38-.476-.952.381-.571.857-1.048 1.048-1.048.286 0 .476.477.476 1.048zm193.242-7.81c-4.381 2.19-4.19 9.62.286 11.62 1.81.857 3.143.857 4.571.19 2.762-1.524 2.381-3.333-.476-2.571-1.524.285-2.857 0-3.619-.857-1.62-2.096-.381-3.62 3.048-3.62 3.904 0 4.762-1.81 1.81-4.095-2.763-2.095-2.668-2.095-5.62-.667zm-525.725 5.81c0 5.429.19 6 2.096 6 1.904 0 2.095-.38 1.619-4.38-.477-4.001-.286-4.477 1.81-4.763 4.38-.667 3.428-2.857-1.239-2.857h-4.286v6zm24-3.81c-2.19 3.239-1.904 6.382.953 8.667 2.762 2.096 5.62 1.905 7.715-.571 1.047-1.238.666-1.429-2.191-1.143-2.952.286-3.524 0-4.381-2.286-.667-2-.571-3.143.381-4.286 1.143-1.523 1.429-1.428 3.143.096 1.333 1.238 2.19 1.428 2.952.571 1.81-1.714.096-3.238-3.619-3.238-2.38 0-3.81.667-4.952 2.19zm252.291-.476c-1.047 1.238-1.428 4-1.428 9.239l.095 7.523 4.857.286c5.143.381 7.715-.857 7.715-3.714 0-1.714-3.81-4.095-6.572-4.095-2.476 0-1.619-1.715 1.048-2.381 1.428-.381 3.048-1.715 3.714-3.143.572-1.334 1.429-2.477 1.905-2.477s.857-.666.857-1.428c0-2.286-10.19-2.096-12.19.19zm5.81 1.81c.381.762.381 2.19 0 2.952-.762 2-3.619.857-3.619-1.428 0-3.143 2.571-4.19 3.62-1.524zm.19 11.333c1.048.667 1.048 1.048.286 1.62-1.428.857-4.095-.096-4.095-1.43 0-1.237 2-1.333 3.81-.19zm189.433-13.333c-4.572 3.238-2 10.476 3.714 10.476 5.334 0 8.096-6.857 4.19-10.381-2.285-2-5.047-2.095-7.904-.095zm6.286 2.666c.762 2.381-1.238 6.763-3.048 6.763-1.428 0-2.476-2.191-2.476-5.334 0-4.571 4.19-5.62 5.524-1.429zm6-2.476c.476.953.857 3.143.952 4.857.286 4.667 1.238 5.43 6.572 5.43 4.667 0 4.952-.096 4-1.906-.571-1.047-1.048-3.81-1.048-6 0-3.333-.38-4.095-1.81-4.095-1.618 0-1.809.667-1.428 4.952.476 5.143-.476 6.381-2.762 3.524-.666-.762-.952-2.38-.666-3.524.761-3.047-.191-4.952-2.572-4.952-1.524 0-1.81.38-1.238 1.714zM587.4 43.59c-.19.096-.19 2.762 0 5.81.285 4.667.666 5.62 2.19 5.62s1.715-.572 1.238-4c-.476-3.525-.285-4.001 2.096-4.953 3.904-1.429 3.238-2.953-1.239-2.858-2.19 0-4.095.19-4.285.381zm10.571 5.143c.19 4.477.667 5.905 2 6.096 1.334.285 1.62-.572 1.62-4.858 0-4.285.285-5.047 1.714-4.762 1.428.286 1.81 1.334 1.81 4.858 0 3.81.285 4.476 2.19 4.762 2 .285 2.095 0 1.714-3.524-1.238-8.572-1.047-8.286-6.38-8.286h-4.953l.285 5.714zM181.107 73.304c1.047 2.953 1.143 12.762.19 14.858-.571 1.047-.285 1.81.762 2.19 2.953 1.143 4.19-.286 4.096-5.143-.096-3.524.285-4.667 1.428-4.667s1.524 1.143 1.429 4.762c-.095 4.286.19 4.667 2.19 4.667 2.19 0 2.286-.285 1.715-5.238-.572-5.62-2.286-7.81-5.334-6.952-1.714.38-2-.096-2-3.143 0-3.239-.286-3.62-2.571-3.62-2.286 0-2.572.286-1.905 2.286zm410.675-.857c.19.952.762 1.62 1.333 1.62 1.429-.096 1.143-2.287-.38-2.858-.858-.286-1.239.19-.953 1.238zm7.81-1.143c0 .095-.191 4.381-.286 9.429-.19 9.143-.19 9.333 2.095 9.333 1.81 0 2.286-.476 1.81-1.619-.381-.857-.572-5.143-.572-9.524 0-6.38-.38-7.905-1.524-7.905-.857 0-1.524.096-1.524.286zm-84.764 4.953c-1.524 1.81-.381 12.38 1.524 13.905 1.81 1.619 3.619-.953 2.095-2.857-.667-.762-.857-3.048-.572-5.239.572-4.666-1.142-8.095-3.047-5.81zM198.25 79.114c-1.81 1.333-2.667 3.048-2.667 4.857 0 2.953 3.905 7.048 6.667 7.048 2.286 0 6.381-4.667 6.381-7.429 0-2.476-4.095-6.571-6.571-6.571-.667 0-2.381.952-3.81 2.095zm5.81 4.952c0 2.762-.381 3.429-2 3.429-1.334 0-2.096-.762-2.286-2.286-.476-3.333.571-5.428 2.571-5.047 1.238.285 1.715 1.333 1.715 3.904zm6.666-6.19c-.666.476-.666 1.238-.095 2.19 1.238 1.905 1.238 6.667-.095 7.429-1.524 1.048-.095 2.476 2.476 2.476 2 0 2.19-.38 2.19-4.19-.094-3.715.191-4.286 2.096-4.572 2.095-.286 3.333-3.143 1.524-3.238-.381-.095-2.19-.19-3.905-.381-1.714-.19-3.62 0-4.19.286zm12.191.19c-2.762 1.048-4.19 7.238-2.286 9.524 2.096 2.476 4.762 3.524 7.43 2.857 3.618-.952 3.142-3.238-.668-3.619-3.81-.38-5.142-2.857-1.428-2.857 5.524 0 7.143-2.19 3.81-5.333-2-1.81-3.62-1.905-6.858-.572zM157.964 79.4c-.953 2.666.571 3.904 2.666 2.095.953-.857 2-1.238 2.286-.762.952 1.619.095 5.62-1.238 6.095-.953.286-1.238-.095-.762-1.143.952-2.571-2.095-2.095-3.429.477-.952 1.81-.857 2.38.572 3.524 1.143.761 2.38.952 3.428.38.858-.476 2.858-.666 4.381-.38 2.762.571 3.524-.477 1.81-2.191-.571-.571-1.143-2.762-1.238-4.952-.381-3.905-.476-4-4.095-4.382-2.667-.19-3.905.191-4.381 1.239zm12 .095c-.953 2.38.285 4.476 3.143 5.524 2.095.762 2.476 1.428 1.904 3.047-.476 1.715-.285 2.096 1.239 1.81 3.143-.667 2.476-6-.953-7.62-1.524-.761-2.476-1.809-2.19-2.38.476-.572 1.143-.572 2 .19 1.428 1.143 3.524.572 3.524-1.143 0-1.619-8-1.047-8.667.572zm352.673-.762c0 .476.858 2.762 2 5.048 1.048 2.285 2 4.571 2 5.143 0 .666.572 1.047 1.334 1.047 2 0 2.857-4.095 1.143-5.333-.762-.667-1.524-2.286-1.715-3.62-.19-1.714-1.047-2.57-2.571-2.857-1.238-.095-2.19.096-2.19.572zm7.524.19c-.666 1.048 0 3.334 2.286 7.81 2 4 2.857 4.095 4.19.572.477-1.524 1.525-4 2.382-5.43 1.428-2.856 1.143-3.904-1.143-3.904-.667 0-1.238 1.143-1.238 2.571 0 1.334-.476 2.477-1.048 2.477-.476 0-1.238-1.143-1.619-2.477-.571-2.476-2.762-3.333-3.81-1.619zm15.334.096c-2.571 1.523-3.238 5.81-1.429 8.571 2.191 3.429 7.81 3.429 10.096 0 3.619-5.619-2.857-12-8.667-8.571zm6.095 4.952c0 3.048-2.571 5.905-4 4.476-1.904-2-2.19-6.095-.476-7.81 2.19-2.19 4.476-.475 4.476 3.334zm16.191-4.762c-2.095 2.095-1.333 4.667 1.81 6.286 3.143 1.714 3.81 3.048 1.714 3.905-.762.286-.667.476.381.571 2.19.095 4.286-2.571 3.62-4.38-.382-.763-1.81-2-3.43-2.763-1.714-.857-2.666-2-2.476-3.143.286-2 0-2.095-1.619-.476zm11.048-.571c-1.238.571-1.81 4.38-.571 4.38.285 0 1.143-.761 1.904-1.714 1.62-2.285 2.191-1.619 2.572 2.667.286 2.762 0 3.524-1.524 3.905-1.429.286-1.714-.095-1.143-1.905.857-2.571-1.143-2.38-2.857.286-1.524 2.38.857 4.857 3.714 3.81 1.334-.477 2.953-.477 3.905 0 1.81 1.047 4.572-1.43 2.857-2.477-.666-.38-1.047-2.19-1.047-3.905 0-4.857-3.143-6.857-7.81-5.047zm12.381 5.143c.19 5.143.476 5.81 2.381 6.095 1.81.286 2.096-.095 1.62-1.333-.286-.953-.572-3.715-.572-6.096 0-3.524-.381-4.476-1.81-4.476-1.428 0-1.714.952-1.619 5.81zm17.048-3.905c-3.524 3.905-.857 10.19 4.381 10.095 3.238 0 4.667-.952 5.81-4.19 2.19-5.62-6.095-10.477-10.19-5.905zm7.143 3.428c.476 3.81-1.428 6-3.905 4.667-1.904-1.047-2.666-5.81-1.238-7.333 1.715-1.715 4.858-.096 5.143 2.666zm6.19-.857c0 2.381-.285 5.143-.57 6-.477 1.143 0 1.524 2 1.524 2.38 0 2.57-.285 2.57-4.476 0-3.714.287-4.476 1.906-4.476 1.81 0 8.095 5.047 8.095 6.476 0 .381-1.143.476-2.476.095-3.429-.857-3.238 1.238.095 2.476 2.095.762 3.048.667 4.476-.666 2.953-2.667 2.381-5.334-1.619-6.953-1.904-.762-3.428-1.905-3.428-2.476 0-1.238 2.666-1.238 3.428.095.762 1.143 2.572.381 2.572-1.143 0-1.238-4.667-1.142-7.143.096-1.334.762-1.905.762-1.905 0 0-.572-1.81-1.048-4-1.048h-4v4.476zM170.06 87.02c-.952 1.619.762 3.143 2.286 2.095 1.047-.571 1.047-1.048-.095-2-1.143-.857-1.715-.857-2.191-.095zm396.58 1.428c0 .858.666 1.524 1.523 1.524.857 0 1.429-.476 1.238-1.143-.666-1.81-2.762-2.19-2.762-.38zM7.864 107.02c-2.762 1.143-5.238 5.905-5.238 10 0 4.667 4.667 8.953 9.715 8.953 2.666 0 4.476-.571 5.714-2 2.476-2.667 1.524-3.333-2.19-1.429-2.286 1.143-3.715 1.238-5.62.572-4.952-1.905-4.571-11.239.572-14.477 1.333-.857 2.38-.571 4.571 1.143 3.143 2.19 4.19 2 4.19-.762 0-2.476-7.333-3.714-11.714-2zm63.24-.095c-.858 1.429.285 3.048 2.095 3.048.857 0 1.429-.667 1.238-1.62-.38-2-2.381-2.857-3.333-1.428zm35.429 2c-2.286 2.286-2.953 3.81-2.953 7.048 0 7.714 4.477 10.952 12.953 9.524 3.143-.476 3.905-1.048 4.286-3.334.286-1.428.667-3.333.857-4.19.286-1.048-.571-1.524-2.952-1.81-3.239-.285-3.334-.19-2.762 2.381 1.238 4.762-3.334 7.334-6.858 3.905-2-2-2-9.333 0-12.19 2-2.763 5.62-2.858 8-.286 2.477 2.857 3.62 2.571 3.334-.667-.381-2.572-.667-2.762-5.62-3.048-4.761-.285-5.618 0-8.285 2.667zM49.676 111.4c-1.905 2.381-.286 13.43 2 14.191 2.095.571 3.905-.19 3.905-1.62 0-.57-.667-.951-1.524-.951-1.81 0-2.096-6-.381-7.715.762-.762.666-1.619-.286-3.143-1.524-2.476-2.19-2.667-3.714-.762zm-26.858 2.286c-1.429.571-1.714 4.286-.381 4.286.476 0 1.429-.667 2.19-1.524.858-.952 1.62-1.143 2.286-.476.667.666.572 1.524-.285 2.476-.858 1.048-.953 1.524-.19 1.524.666 0 1.142 1.143 1.142 2.476 0 2.667 1.905 3.81 4.095 2.476 1.143-.666 1.143-1.047.19-2.095-.761-.667-1.237-2.571-1.237-4.286 0-4.762-3.239-6.667-7.81-4.857zm12.381 9.048c.19 9.905.762 11.143 4.095 9.81 1.239-.477 1.334-.858.477-1.715-2.19-2.19-1.429-4.857 1.333-4.857 5.429 0 8.667-7.714 4.667-11.334-1.143-.952-3.524-1.619-6.286-1.619h-4.381l.095 9.715zm8.477-6.19c1.81 2.19 0 6.952-2.667 6.952-1.334 0-2-.762-2.286-2.857-.571-5.239 2.095-7.524 4.953-4.096zm15.143-2.382c-.667.667-1.238 1.81-1.238 2.572 0 1.619 2.666 1.714 3.333 0 .286-.953.762-.953 1.619-.096.952.953.857 1.334-.762 1.81-1.048.381-2.762 1.524-3.714 2.571-2.572 2.953-.572 4.762 5.047 4.572 5.048-.19 6.286-.952 4.667-2.857-.571-.667-1.143-3.048-1.333-5.238-.286-3.62-.667-4-3.334-4.286-1.714-.19-3.619.286-4.285.952zm3.905 8.19c-1.334 1.239-2.667.287-1.715-1.237.381-.667 1.143-.857 1.715-.476.666.38.666.952 0 1.714zm8.285-3.333c.096 4.953.381 6.096 1.905 6.572 2.19.762 4.476-.952 2.762-2-.571-.381-1.047-2.952-1.047-5.62 0-4.095-.381-4.952-1.81-4.952-1.524 0-1.81.857-1.81 6zm8.477-5.619c0 .096-.095 2.667-.19 5.905-.191 5.334-.096 5.715 2.095 5.715 1.904 0 2.19-.381 1.714-2-.953-2.953.38-8 2.095-8 1.429 0 1.714 1.333 1.62 6.666-.096 3.048 1.809 5.048 3.714 3.81 1.047-.572.095-9.62-1.143-11.143-.667-.857-9.429-1.62-9.905-.953zm45.524 5.715c.096 5.333.286 5.905 2.191 5.905 1.81 0 2-.572 2-4.286-.095-3.62.19-4.286 2.095-4.572 4.19-.571 2.572-2.952-2-2.952h-4.286v5.905zm319.15.095c.19 6.19.952 7.62 3.905 6.476 1.047-.38 1.238-1.333.666-3.333-1.047-3.62-.476-5.334 1.905-5.334 1.333 0 2-.666 2-2 0-1.714-.667-2-4.381-2h-4.286l.19 6.19zm11.429-4.19c-2.572 2.57-2.572 6 0 8.857 2.38 2.476 6.19 2.857 8 .666.666-.857.857-1.523.38-1.619-.476-.095-2-.19-3.333-.285-1.524-.096-2.666-.858-2.857-1.81-.19-1.333.571-1.714 3.429-2 4.19-.381 5.238-1.81 2.857-4.19-2.19-2.191-6.095-2-8.476.38zm12.285-.858c-1.714 1.715-1.619 3.81.191 3.81.857 0 1.524-.381 1.524-.953 0-.571.666-1.047 1.524-1.047.762 0 1.523.762 1.523 1.524 0 .952-.952 1.523-2.476 1.523s-2.952.858-3.619 2.096c-1.714 3.143.286 4.666 6.095 4.571 4.667 0 5.048-.19 4.382-2.095-.286-1.143-.953-3.905-1.239-6.095-.571-3.524-1.047-4-3.714-4.286-1.619-.19-3.524.286-4.19.952zm4.762 6.762c0 .572-.476 1.238-1.047 1.62-.572.285-.953-.096-.953-.953s.381-1.62.953-1.62c.571 0 1.047.477 1.047.953z"/>
	<path d="M21.104 121.686c-.762 2.095 2 5.143 3.428 3.81 1.334-1.334.19-5.524-1.428-5.524-.762 0-1.62.762-2 1.714zm31.62 22.096c.19.952 1.047 1.714 1.904 1.714.762 0 1.62-.762 1.81-1.714.19-1.238-.381-1.81-1.81-1.81-1.524 0-2.095.572-1.905 1.81zm436.294-.19c.285.857.571 5.142.571 9.523 0 7.81 0 7.905 2.572 7.905 2.19 0 2.476-.285 1.904-1.714-.476-.952-1.047-5.238-1.238-9.524-.38-6.953-.666-7.81-2.476-7.81-1.428 0-1.81.476-1.333 1.62zm45.62-.667c0 .571.38 1.238.952 1.619.572.285 1.048 3.428 1.048 6.952s-.476 6.667-1.048 7.048c-2.095 1.238-.857 2.476 2.476 2.476 3.715 0 5.429-1.428 2.953-2.38-1.334-.477-1.524-1.81-1.238-6.858.285-3.429.762-7.048 1.238-8 .666-1.524.286-1.81-2.857-1.81-1.905 0-3.524.476-3.524.953zm34.667 7.81c.381 8.761 1.143 11.047 3.143 9.904.762-.476.762-1.524 0-3.333-.476-1.524-.857-5.429-.667-8.762.286-4.857 0-6-1.333-6.286-1.429-.286-1.62.667-1.143 8.476zm8.286-7.239c0 .857.667 1.524 1.524 1.524.762 0 1.524-.667 1.524-1.524 0-.762-.762-1.524-1.524-1.524-.857 0-1.524.762-1.524 1.524zm-532.582 3.238c-1.714 2.667-.572 13.143 1.524 14.286.952.476 2.19.476 3.143-.095 1.143-.762 1.143-1.143-.381-2-1.048-.667-1.715-2.19-1.715-4.381 0-2.19.572-3.524 1.715-4 1.714-.667 1.714-.762 0-2-.953-.667-1.715-1.714-1.715-2.381 0-1.714-1.333-1.334-2.571.571zm-39.906 2.477c-2.857 1.619-3.524 2.857-3.524 6.571 0 4.286 3.905 7.048 7.524 5.429 1.334-.667 2.477-1.81 2.477-2.667 0-1.238-.381-1.333-1.905-.571-3.429 1.81-6.286-2.477-4.095-6 .761-1.239 1.238-1.239 3.047-.096 2.857 1.715 4.667 0 2.476-2.19-1.904-1.905-3.238-2-6-.476zm11.62.571c-3.429 2.857-3.715 6.762-.762 9.714 2.952 2.858 5.238 3.143 8.38.953 3.048-2.095 3.048-7.62.096-10.381-2.762-2.477-4.952-2.572-7.714-.286zm5.333 5.238c0 2.857-.38 3.524-2 3.524-1.333 0-2.095-.762-2.286-2.381-.476-3.333.572-5.333 2.572-4.952 1.238.285 1.714 1.333 1.714 3.81zm7.143-6.095c-.19.38 0 3.333.286 6.571.476 4.477.952 6 2.095 6 1.048 0 1.62-1.238 1.81-4 .38-6 .857-6.952 2.762-5.428 1.238 1.047 1.428 2.38 1.047 5.143-.571 3.524-.476 3.81 1.715 3.81 2.285 0 2.38-.286 1.904-4.763-.285-2.571-1.143-5.428-1.904-6.286-1.334-1.333-9.144-2.19-9.715-1.047zm23.62-.286c-.953.381-.953 1.048-.096 2.572.572 1.142.857 3.81.572 6-.476 3.524-.286 3.81 1.81 3.81 2.285 0 2.38-.286 1.809-5.239-.762-8-.953-8.381-4.095-7.143zm8.666-.095c-.095 0-.19 2.762-.285 6.19-.19 5.905-.096 6.286 2 6.286 2 0 2.19-.476 2-4.762-.095-3.619.19-4.762 1.428-4.762 1.048 0 1.429 1.143 1.429 4.762-.095 3.715.286 4.858 1.714 5.334 2.857.952 3.62-.286 3.048-4.858-.762-6.476-1.62-7.428-6.762-7.904-2.476-.19-4.476-.286-4.572-.286zm99.05.38c-.095.382-.19 4.763-.286 9.81-.19 9.048-.095 9.239 2.096 9.239 1.904 0 2.19-.381 2-3.143-.19-2.857.095-3.238 3.143-3.905 1.81-.38 3.714-1.333 4.19-2.095 1.143-1.715 1.143-5.905 0-7.715-.857-1.333-11.048-3.333-11.143-2.19zm9.048 5.239c0 2.857-1.81 5.81-3.524 5.81-2 0-2.953-4.572-1.62-7.524.953-2.096 1.43-2.381 3.144-1.429 1.143.572 2 2 2 3.143zm8-5.429-3.524.381.381 5.905c.286 5.524.476 6 2.667 6 2.095 0 2.286-.285 1.714-4-.476-3.619-.286-4 2.19-4.952 1.524-.572 2.572-1.62 2.382-2.286-.477-1.333-1.239-1.524-5.81-1.048zm261.434 1.715c-2.857 2.857-3.048 5.238-.857 8.38 1.238 1.81 2.38 2.191 5.238 2 2.571-.19 3.81-.856 4-2.094.286-1.43-.19-1.62-2.667-1.048-2.667.476-3.143.286-3.714-2.095-.857-3.62.666-5.143 3.619-3.62 2.857 1.62 4.667-.095 2.476-2.285-2.38-2.381-5.238-2.096-8.095.762zm11.905-1.715c-.953.286-.953 1.143-.19 3.048.57 1.524.761 4.19.38 6-.571 2.953-.38 3.238 1.905 3.238 2.476 0 2.572-.19 2-4-.667-3.619-.476-4 1.905-4.952 2.476-.953 3.714-2.953 1.905-3.143-.381 0-2.096-.19-3.715-.286-1.714-.19-3.524-.095-4.19.095zm11.143-.095c-1.238.476-.667 9.429.667 11.048.571.667 3.047 1.143 5.523 1.143 4.191 0 4.477-.19 3.905-2.095-.285-1.239-.571-3.905-.571-6 0-2.953-.381-3.715-1.905-3.715-1.619 0-1.81.571-1.333 4.572.476 4.095.285 4.571-1.334 4.285-1.428-.285-2-1.428-2.285-4.38-.286-4.191-.953-5.43-2.667-4.858zm16.857.381c-4.952 2-5.428 8.572-.762 11.62 2 1.333 3.048 1.428 4.953.57 3.238-1.523 3.238-3.618.095-2.761-3.048.666-5.81-2-3.524-3.524.762-.476 2.381-.857 3.62-.857 3.142-.095 3.714-1.62 1.333-4-2.286-2.286-2.572-2.286-5.715-1.048zm67.716 5.905c0 5.238.19 6.095 1.81 6.095 1.523 0 1.714-.857 1.714-5.714-.095-4.572-.476-5.81-1.81-6.095-1.524-.286-1.714.571-1.714 5.714zm6-4.286c.762.857 1.429 3.429 1.429 5.715.095 3.047.571 4.285 1.81 4.476 1.428.286 1.714-.476 1.714-3.81 0-5.143-1.429-8-4.191-8-1.81 0-1.905.19-.762 1.62zm9.429.857c-2.286 3.429-.476 8.477 2.952 8.477.572 0 .476-.477-.19-1.143-1.524-1.524-1.62-5.238-.19-7.905 1.523-2.857-.667-2.381-2.572.571zm15.524 2.953c0 5.047.952 7.333 2.762 6.19.38-.19.571-2.952.38-6-.19-4-.761-5.619-1.713-5.619-1.048 0-1.429 1.429-1.429 5.429zm-456.295 23.143c-.38.381-.19 1.62.381 2.667.572 1.047.952 5.143.762 9.048-.381 7.238.381 8.571 3.81 7.333 1.238-.476 1.333-.952.38-2.095-1.714-2.096-.952-6.953 1.239-7.334 1.619-.285 1.81.19 1.619 4.477-.286 4.38-.095 4.857 1.905 5.143 2 .285 2.19-.096 2.19-4.667 0-5.62-1.714-8.19-5.524-8.19-1.905 0-2.38-.572-2.667-3.239-.285-3.048-2.476-4.667-4.095-3.143zm94.954 9.143c.286 9.429.381 9.81 2.572 9.81 2.095 0 2.19-.381 1.905-4.857-.286-4.286-.096-4.762 1.524-4.477 1.523.286 1.81 1.238 1.619 5.143-.096 4.667 0 4.762 2.571 4.477 1.81-.191 2.476-.762 2.19-1.81-.19-.857-.57-3.048-.857-5.048-.571-4.38-1.81-6-4.762-6-1.904 0-2.38-.571-2.571-3.238-.286-2.286-.952-3.333-2.381-3.524-1.905-.286-2 .286-1.81 9.524zm15.905-8.762c-.952 1.429.191 3.048 2.096 3.048.857 0 1.333-.667 1.143-1.715-.381-2-2.381-2.762-3.239-1.333zm34.001 2.571c.572 3.239.476 3.43-1.81 3.43-3.238 0-5.714 2.952-5.714 6.761 0 4.095 2.476 6 8 6l4.572-.095-.381-8.572c-.476-10.476-.667-11.047-3.238-11.047-1.81 0-2 .38-1.429 3.523zm.857 8c.762 3.144-.952 6.572-2.952 5.81-2-.762-2.762-3.905-1.524-6.286 1.524-2.762 3.714-2.571 4.476.477zm246.958-10.761c-1.81 1.142-2.667 5.238-2.762 12-.096 5.619.095 6.286 1.904 6.286 1.81 0 2-.667 2-7.81 0-7.334.096-7.715 2.286-8.095 1.238-.191 2.096-.858 1.905-1.43-.476-1.428-3.81-2-5.333-.951zm15.143 3.523c.38 2.286.762 5.143 1.047 6.286.19 1.143 0 3.524-.476 5.238-1.047 3.43-.19 4.667 2.667 3.81 1.524-.476 1.714-1.81 1.429-10.095-.286-9.334-.381-9.524-2.762-9.524-2.286 0-2.381.285-1.905 4.285zm52.953-3.238c-.38.667-.19 1.62.476 2.286.858.857 1.334.762 2-.286.953-1.524.477-3.047-.952-3.047-.476 0-1.143.476-1.524 1.047zm37.715 2c.286 2.953 0 3.334-2.952 4.19-4.095 1.048-5.81 4.191-4.286 8.096.952 2.667 3.524 4.477 4.667 3.334.38-.286-.095-1.334-.953-2.19-2-2-2.095-3.525-.285-5.906 2.285-3.238 4.666-1.238 4.666 3.905 0 3.62.286 4.572 1.715 4.572 1.524 0 1.714-.953 1.238-9.239-.381-7.81-.762-9.333-2.286-9.619-1.428-.286-1.714.286-1.524 2.857zm-506.105 2.286c-1.524 1.905-.286 13.715 1.524 14.381.762.286 2.095.19 3.047-.095 1.524-.571 1.524-.762 0-2.476-2.19-2.381-2.095-6.762.096-8 1.619-.953 1.619-1.048 0-1.715-.953-.38-1.715-1.238-1.715-2 0-1.81-1.428-1.81-2.952-.095zm253.243-.095c-1.143 1.905-.38 13.143.952 14 2 1.238 4.762.857 4.762-.667 0-.762-.761-1.619-1.523-1.904-2-.762-2-5.048 0-7.048 1.333-1.334 1.333-1.714-.19-3.62-2.096-2.285-2.953-2.476-4-.761zm222.957 0c-1.429 1.714-.381 12.476 1.333 13.81 1.524 1.333 4.381.571 4.381-1.048 0-.571-.666-1.048-1.524-1.048-1.81 0-2.095-7.524-.38-8.19.857-.286.761-.953-.191-2.572-1.619-2.476-2.286-2.667-3.62-.952zm-381.912.857c-1.43 1.333-.572 11.048 1.142 12.762.762.857 2.096 1.143 3.143.667 1.715-.667 1.715-.762.096-2-2-1.429-2.381-6.572-.572-8.286.857-.857.857-1.524-.19-2.667-1.429-1.81-2.19-1.905-3.62-.476zm132.288 2c-5.81 4.572-.857 13.715 6.286 11.429 3.047-.953 2.762-3.905-.381-3.143-1.429.38-2.762.095-3.429-.762-1.428-1.714-.476-2.667 2.953-2.667 3.619 0 4.285-2.19 1.523-4.857-2.762-2.571-3.714-2.571-6.952 0zm-202.766-.762c0 .095-.19 2.857-.286 6-.095 6.096.762 7.524 3.905 6.286 1.143-.476 1.333-1.048.571-2.476-1.238-2.381-.095-6.667 1.905-6.667.857 0 1.524-.667 1.524-1.429 0-.952-1.238-1.523-3.81-1.714-2-.095-3.714-.095-3.81 0zm11.238 1.714c-2.571 2.381-2.762 5.143-.571 8.477 2.19 3.333 7.619 3.428 9.905.285 4.762-6.952-3.143-14.476-9.334-8.762zm6.858 4.477c0 1.238-.572 2.666-1.239 3.333-2.952 2.381-5.904-3.524-3.143-6.286 2-2 4.382-.476 4.382 2.953zm6.38-4.667c1.048 3.524 3.144 8.667 4 9.905.953 1.619 3.62-.19 3.62-2.381 0-2.381 1.714-1.524 2.38 1.143.858 3.238 2.382 3.143 3.62-.286.571-1.524 1.714-3.905 2.476-5.429 1.905-3.333 1.905-4.857 0-4.857-.857 0-2.095 1.238-2.667 2.762l-1.238 2.762-.285-2.667c-.381-2.476-.667-2.571-6.477-2.571-5.143 0-5.905.19-5.428 1.619zm7.144 2c0 1.81-2 1.429-2.381-.381-.19-1.048.19-1.524 1.047-1.238.667.19 1.334.952 1.334 1.619zm13.047-3.143c-.285.286 0 1.429.572 2.572.571 1.047.762 3.714.476 5.81-.571 3.618-.476 3.904 1.81 3.904 2.19 0 2.38-.381 2.19-4.762-.095-3.62.19-4.762 1.429-4.762 1.047 0 1.524 1.333 1.714 4.762.286 3.905.667 4.762 2.19 4.762 1.715 0 1.81-.571 1.334-5.714-.286-3.239-1.048-6.096-1.62-6.477-1.237-.762-9.237-.857-10.095-.095zm49.811 5.81c0 6.095.095 6.476 2.286 6.476 2.095 0 2.19-.286 1.714-5.238-.667-6.762-1.048-7.81-2.667-7.81-.952 0-1.333 1.81-1.333 6.572zm7.238-5.905c-1.714 1.81-.476 5.428 2.381 6.857 1.715.857 2.762 2 2.476 2.572-.38.571-1.238.571-2.476 0-2.476-1.429-2.952-1.334-2.952.38 0 1.905 5.619 3.048 7.524 1.524 1.714-1.428 1.905-5.143.285-6.666-.857-.953-.857-1.524 0-2.572.572-.762.858-1.714.477-2.095-.857-.857-6.762-.857-7.715 0zm4.857 2.38c.381.572-.095.953-.952.953s-1.524-.38-1.524-.952.381-1.048.953-1.048c.476 0 1.238.476 1.523 1.048zm31.144-1.142c-2.19 2.476-2.095 6.667.38 9.143 5.62 5.62 14.001-1.81 9.525-8.572-2-3.047-7.334-3.333-9.905-.571zm6.381 1.619c1.81 2.286.857 6-1.714 6.381-2 .286-2.286-.19-2.286-3.143 0-4.762 1.619-6.095 4-3.238zm8.19-2.19c-2.095 2.571-2.476 6.666-.761 9.238 1.428 2.095 2.38 2.571 5.333 2.286 2.572-.191 3.81-.858 4.096-2.096.19-1.428-.286-1.714-3.048-1.524-2.953.286-3.334 0-3.62-2.571-.475-4 1.239-5.429 3.81-3.143 1.715 1.62 2 1.62 2.572.19.286-.857.286-2 0-2.571-.953-1.524-7.143-1.333-8.381.19zm11.43-.477c-.286.381-.096 1.429.476 2.286.476.762.857 3.048.857 5.143 0 2.095.38 3.81.762 3.81 4.476.571 9.333.666 9.619.095.19-.381.095-3.143-.286-6.19-.476-4.477-.857-5.43-2.476-5.43-1.524 0-1.905.762-2 4-.095 5.715-2 5.906-2.381.191-.286-3.81-.667-4.762-2.19-4.762-1.048 0-2.096.381-2.382.857zm14.952 5.429c.19 4.952.667 6.381 2 6.572 2.476.571 4-1.43 2.476-3.239-1.714-2.095-.952-6 1.334-6.38 1.619-.286 1.81.19 1.428 4.476-.285 4.571-.19 4.857 2.19 4.857 2.382 0 2.477-.286 2.191-4.762-.285-3.715 0-4.762 1.143-4.762 1.905 0 2.572 2.667 1.524 6.286-.571 2.095-.38 2.952.667 3.333 3.238 1.238 4.286-.286 3.714-5.333-.286-2.572-.857-5.334-1.428-5.905-.477-.667-4.381-1.143-9.143-1.238l-8.286-.096.19 6.191zm34.763-4c.38 1.238.666 4.19.666 6.476 0 3.905.19 4.286 2.477 4.286 2.38 0 2.38-.19 1.81-5.143-.572-4.571-.382-5.048 1.333-4.667 1.523.286 1.81 1.143 1.714 5.143-.19 4.667-.095 4.762 2.476 4.477 1.81-.191 2.572-.762 2.286-1.81-.19-.857-.572-3.048-.762-4.953-.571-5.047-1.905-6.095-7.62-6.095-4.666 0-4.952.19-4.38 2.286zm146.765.19c-5.62 5.905 3.143 14.286 8.952 8.572 2.381-2.381 2.476-5.714.381-8.762-2.095-3.048-6.476-2.953-9.333.19zm6.952 2.096c.953 2.571-.19 6.476-1.905 6.476-2.476 0-4.38-6.476-2.476-8.381 1.429-1.334 3.429-.476 4.381 1.905zm34.667-3.239c-2.761 2.096-3.047 6-.666 9.048 2.571 3.238 5.905 3.429 8.762.381 2.571-2.762 2.762-5.428.667-8.476-1.81-2.476-6.096-2.953-8.763-.953zm6.286 3.239c1.238 3.238 1.334 3.047-.571 4.952-2.19 2.095-4.381.286-4.381-3.429 0-4.762 3.333-5.714 4.952-1.523zm6.762-4c-.095.19-.095 2.857.096 5.904.285 4.762.571 5.524 2.285 5.524 1.715 0 1.905-.38 1.334-3.428-.476-2.286-.286-4.096.476-5.048 1.905-2.286 3.048-.762 3.048 4.095 0 3.715.285 4.381 1.904 4.381 1.62 0 1.81-.571 1.62-5.047-.191-2.953-.858-5.524-1.62-6-1.238-.762-8.476-1.048-9.143-.381zm16.953.952c-1.905.952-2.19 1.905-2.286 7.238 0 3.429-.38 6.572-.762 6.953-.38.38-.19 1.238.477 2 1.428 1.81 8 1.714 10.38-.095 2.667-1.905.953-4.667-3.618-6.096-3.143-.857-3.429-1.333-3.715-5.238-.285-3.62-.095-4.286 1.62-4.286 2.285 0 3.238 2 2.476 4.953-.381 1.619-.19 2 1.047 1.523.953-.38 1.715-1.238 1.715-2 0-.666.666-2 1.619-2.952.857-.857 1.333-1.81.952-2.19-1.048-1.048-7.62-.953-9.905.19zm5.143 13.429c1.81 1.143.571 3.047-1.81 3.047-2.19 0-3.428-1.428-2.571-2.952.762-1.238 2.571-1.238 4.381-.095zm6.953-14.381c-.381.38-.286 1.714.19 3.047.571 1.334.667 3.81.381 5.429-.571 2.667-.381 2.952 1.714 2.952 2.381 0 2.381-.19 1.905-5.714-.38-4.095-.952-5.81-2.095-6-.762-.19-1.81 0-2.095.286zm17.048.19c-.191 1.714.285 7.905.761 9.524.286 1.048 1.524 1.714 2.953 1.714 2.667 0 3.238-1.428.952-2.285-1.047-.381-1.524-2-1.524-5.143 0-3.334-.38-4.572-1.523-4.572-.762 0-1.524.381-1.62.762zm6.857 4.572c.571 5.714 2.476 8.857 4.38 7.047.763-.762.763-1.333 0-1.81-.57-.38-1.047-2.856-1.047-5.618 0-4.096-.38-4.953-1.905-4.953-1.619 0-1.81.667-1.428 5.334zm23.81-3.048c-2.19 3.143-1.905 6.095.857 8.667 1.714 1.619 3.048 2 4.952 1.524 3.81-.953 3.43-3.239-.571-3.048-2.286.095-3.333-.381-3.524-1.62-.286-1.428.286-1.809 3.238-1.809 4 0 5.524-2 3.524-4.476-1.905-2.286-6.667-1.81-8.476.762zM35.58 213.02c-1.143.762-1.238 1.143-.286 2.19 1.905 1.81 1.524 3.81-.666 3.81-2.953 0-6 3.524-6 6.858 0 4 2.762 6.095 8.095 6.095h4.476l-.38-8.667c-.191-4.857-.572-9.333-.763-10-.476-1.524-2.38-1.619-4.476-.286zm1.429 10.572c.952 2.667-.476 6.381-2.477 6.381-2.095 0-3.619-3.81-2.571-6.476.762-2 4.286-1.905 5.048.095zm132.86-10c-1.239.857-2.286 2.38-2.286 3.428s-.476 2.19-1.048 2.477c-.571.476-.571 1.333.095 2.666.667 1.143.858 3.715.381 6-.571 3.81-.476 4 1.715 3.715 2.095-.286 2.285-.762 2-4.667-.19-2.38.19-4.857.857-5.62.762-.951.762-1.618.095-2-1.905-1.142-1.143-3.428 1.143-3.713 2.476-.381 3.143-3.143.762-3.62-.857-.19-2.476.381-3.714 1.334zm45.048 0c-.857 2.19 1.238 4.19 2.762 2.666 1.333-1.238.571-4.285-1.048-4.285-.666 0-1.428.762-1.714 1.619zm38.572-.476c-1.143.666-1.143 1.047-.19 2.095 2 2 1.524 3.81-1.143 3.81s-5.143 2-6 4.857c-.667 2 .857 7.047 2.19 7.238.381.095 2.953.286 5.62.476 4.571.286 4.761.19 4.19-1.905-.286-1.143-.571-5.428-.571-9.333 0-7.334-1.048-9.143-4.096-7.238zm.857 11.428c.286 3.715-1.047 6-3.143 5.143-2.19-.857-3.142-5.333-1.619-7.238 2-2.38 4.477-1.333 4.762 2.095zm126.289-11.619c0 .667.666 1.905 1.523 2.762 1.239 1.238 1.334 2.952.858 8.953l-.667 7.333h5.333c2.953 0 6.191-.571 7.143-1.333 2-1.524 2.381-5.62.667-7.334-.762-.762-.762-1.619.095-3.238 1.334-2.571.572-5.62-1.714-6.476-.857-.381-4.286-.953-7.429-1.238-4.286-.477-5.81-.286-5.81.571zm10.762 4.857c.19 1.429-.286 2.477-1.334 2.858-2 .761-3.428-1.143-2.762-3.81.762-2.572 3.715-1.905 4.096.952zm1.143 7.143c.762 1.524.666 2.381-.572 3.524-.857.953-2.095 1.524-2.667 1.334-1.81-.572-3.047-3.43-2.38-5.143.857-2.19 4.38-2 5.619.285zm17.429-11.81c-.858 1.43 1.142 3.334 2.571 2.477.571-.381 1.048-1.048 1.048-1.524 0-1.333-2.858-2.095-3.62-.952zm55.334-.38c-.286.38-.095 3.904.381 7.619.476 4.19.476 7.619-.095 8.667-1.048 2-.381 2.952 2.19 2.952 1.524 0 1.81-.762 1.81-5.048 0-4.285.286-4.952 1.714-4.666 1.429.19 1.81 1.333 1.81 4.762 0 3.81.285 4.476 2 4.476 1.714 0 1.905-.572 1.619-4.476-.476-5.905-1.715-8-4.572-8-2 0-2.476-.572-2.762-3.239-.285-3.047-2.952-5.047-4.095-3.047zm95.716.666c-.857 2.19.286 3.334 1.81 1.81.857-.953.857-1.429 0-2.381-.857-.857-1.334-.762-1.81.571zm-477.724.667c-3.143 1.905-1.428 8.572 2.286 9.048 2.953.285 4-.095 5.62-2.572 1.523-2.38 1.523-2.666 0-5.047-1.715-2.572-4.858-3.143-7.906-1.429zm5.143 4.286c.19 1.143-.38 1.619-1.81 1.619-1.142 0-2-.572-2-1.334 0-3.047 3.239-3.333 3.81-.285zm48.477-4.096c-1.714 2.286-4.666 9.81-4.095 10.286.857.858 7.81-8 7.81-9.905 0-1.904-2.381-2.19-3.715-.38zm48.192.381c.952 2 1.238 12.953.476 15.334-.286.952.286 1.62 1.524 1.81 1.905.285 2-.19 2-8.953 0-9.048-.095-9.333-2.381-9.62-2-.285-2.286-.094-1.62 1.43zm20.762 3.239c-1.524 2.476-.19 12.952 1.81 14.19 1.714 1.143 2.095 1.143 3.905 0 1.238-.762 1.143-1.143-.286-2.857-2-2.19-2.286-6.857-.476-7.429.952-.38.952-1.047-.19-3.143-1.62-3.047-3.144-3.333-4.763-.761zm17.81-.477c-.857 1.048-.952 3.429-.476 7.62.667 6.285 1.81 7.81 5.143 6.571 1.619-.667 1.619-.762-.095-2.095-2-1.429-2.572-6-.953-7.62.667-.666.667-1.809-.095-3.428-1.333-2.762-1.905-2.952-3.524-1.048zm233.243.477c-1.62 2.571-.286 12.095 1.81 13.428.857.572 2.476.667 3.428.286 1.81-.762 1.81-.857-.286-2.286-2.666-1.81-2.762-2.762-.762-6.666 1.334-2.667 1.334-3.048-.19-4.762-2.095-2.286-2.572-2.286-4 0zm121.907-.096c-1.524 3.048-.286 12.191 1.81 13.239 2.095 1.143 4-.762 2-2-.762-.477-1.143-2.477-1.048-5.143.381-6.096.19-7.905-.952-7.905-.572 0-1.334.857-1.81 1.81zm-510.2 1.238c0 3.143.285 3.524 3.238 3.143 3.333-.38 3.333.19.19 7.239-2.952 6.666-3.143 8.857-.762 8.476 1.048-.286 2.381-2.762 3.81-7.334 1.143-3.904 2.666-8 3.333-9.333 1.429-2.572 1.238-2.667-5.619-3.62-3.81-.57-4.19-.38-4.19 1.43zm-11.334.096c-.953.571-1.714 1.714-1.714 2.476 0 1.238.38 1.238 2.095.38 3.428-1.904 4.762.477 2 3.43l-2.286 2.476 2.095 1.333c1.143.667 2.096 2.286 2.096 3.62 0 2.57-2.572 4-4.286 2.285-1.62-1.524-3.715-1.333-3.715.381s3.048 3.524 5.905 3.524c4.286 0 7.905-8.286 4.667-10.953-1.048-.857-1.143-1.714-.286-3.905.572-1.619.762-3.619.381-4.476-.666-1.81-4.19-2.19-6.952-.571zm48.858.666c.476.953.857 3.334.857 5.239 0 1.904-.38 4.285-.857 5.238-.667 1.524-.286 1.714 2.571 1.714h3.334v-14h-3.334c-2.857 0-3.238.286-2.571 1.81zm14.953 5.239c0 6.952 0 6.952 2.666 6.952 2.858 0 4.477-1.429 2.858-2.476-1.334-.762-1.334-8.19 0-8.953 2-1.238.857-2.571-2.286-2.571h-3.238v7.048zm509.724-5.905c-3.429 1.238-4.762 5.143-3.238 8.857 1.81 4.381 9.048 5.714 9.81 1.905.19-1.334-.477-1.62-2.953-1.524-2.38.095-3.428-.286-3.619-1.62-.286-1.428.381-1.713 3.714-1.713 4.286 0 5.143-1.239 2.762-4.191-1.714-2.095-3.81-2.667-6.476-1.714zm-628.489.952c-1.81 1.048-2.476 4.953-.857 4.953.476 0 1.429-.667 2.095-1.524.667-.762 1.62-1.238 2-.953 1.239.762.572 6.762-.857 7.239-.952.38-1.143-.096-.666-1.62.476-1.523.19-2.19-.762-2.19-2.096 0-3.81 2.476-3.143 4.381.857 2.286 11.429 2.381 11.429.19 0-.761-.477-1.714-.953-2-.571-.38-1.047-2.19-1.047-4.095 0-4.571-3.429-6.571-7.239-4.38zm11.905-.095c-.19.286-.095 3.143.096 6.38.38 5.24.666 5.715 2.571 5.43 1.905-.19 2.095-.858 1.81-5.048-.19-3.714 0-4.762 1.238-4.762 2 0 3.238 4.857 1.81 7.048-1.334 2.095-.572 2.952 2.38 2.952 2 0 2.19-.286 1.715-4.667-.286-2.666-1.143-5.428-1.905-6.286-1.334-1.333-9.238-2.19-9.715-1.047zm140.575.286c-2.953 1.428-3.905 5.428-2.096 8.666 2 3.62 8 4.191 10.286.953 2.096-3.143 2-6-.476-8.667-2.19-2.381-4.19-2.667-7.714-.952zm4.571 1.619c.857.476 1.238 2.19 1.048 4.285-.286 2.572-.857 3.334-2.381 3.334-1.429 0-2.096-.762-2.286-2.857-.571-4.858.762-6.572 3.62-4.762zm35.43-1.62c-2.382 1.143-2.953 3.239-1.239 4.286.572.286 1.238-.095 1.62-.952 1.142-2.952 3.428-1.714 3.428 1.905 0 3.905-1.905 5.714-2.762 2.666-.667-2.666-2-2.761-2.762-.19-.952 3.143 0 3.81 5.429 3.714 4.762 0 6.667-1.523 4.095-3.143-.571-.38-1.048-2.38-1.048-4.476 0-4.857-2.095-6.095-6.762-3.81zm19.905 5.239c.095 6.095.19 6.476 2.285 6.476 2.096 0 2.286-.286 1.81-5.238-.476-6.762-.857-7.715-2.667-7.715-1.238 0-1.524 1.334-1.428 6.477zm17.619-5.905c-.571.571-.19 5.048.762 10.095.476 1.905 1.143 2.19 5.619 2.19 4.667-.094 4.953-.19 4.476-2.19-.285-1.238-.571-4.095-.571-6.38 0-3.525-.381-4.287-2-4.287-1.62 0-1.81.667-1.714 4.762.095 3.62-.191 4.762-1.334 4.762-1.047 0-1.619-1.428-2-4.476-.476-4.095-1.81-5.905-3.238-4.476zm30.858.952c-3.143 3.143-2.762 8.381.762 10.667 1.904 1.238 6.285.857 7.524-.571 1.619-1.905-.286-3.048-2.762-1.715-1.238.667-2.19.667-2.953-.19-2.286-2.19-1.333-3.714 2.286-3.714 4.19 0 5.333-1.524 2.952-4.096-2.095-2.286-5.714-2.476-7.81-.38zm4.38 1.429c0 .571-.475 1.048-.952 1.048a1.057 1.057 0 0 1-1.047-1.048c0-.476.476-.953 1.047-.953.477 0 .953.477.953.953zm131.718-2.286c-.19.095 0 2.857.285 6 .381 4.477.858 5.905 2.286 6.19 1.429.287 1.714-.38 1.524-4.285-.19-5.238-.286-5.048 3.429-5.905 2.476-.667 2.762-.476 2.857 2.095.095 1.524 0 4-.095 5.524-.096 2.096.285 2.667 1.714 2.667 2.762 0 2.857-.19 2.286-6.667l-.477-5.81h-6.857c-3.714 0-6.857.096-6.952.191zm18.857 5.62c.286 5.333.572 6.285 2.286 6.476 1.714.285 2-.19 1.81-4.381-.096-3.905.19-4.858 1.619-5.143 1.619-.381 1.81.19 1.619 4.38-.286 4.382-.096 4.953 1.904 5.239 2 .286 2.191-.095 2.191-4.762 0-6.286-1.714-8.096-7.429-8.096h-4.38l.38 6.286zm18.858-5.43c-3.238.572-4.381 2.191-4.19 6 .094 2-.096 5.239-.477 7.239-.667 3.143-.476 3.714 1.524 4.571 3.333 1.524 10.095.286 10.571-2 .477-2.476-1.428-4.38-5.143-5.238l-3.238-.762 3.334-1.333c2.857-1.143 5.428-4.762 5.619-7.714.095-.953-4.667-1.43-8-.762zm2.476 2.953c1.238 2.286-.19 4.667-2.286 3.905-2.476-.953-2-5.715.476-5.715.477 0 1.239.858 1.81 1.81zm1.143 12.19c0 1.906-3.143 2.287-4.857.667-1.524-1.523-1.429-1.714 1.619-1.714 1.714 0 3.238.476 3.238 1.048zm41.43-14.571c-2.572 1.905-2.572 8.286.094 10.19 2.191 1.715 6.572 1.43 7.143-.285.286-.667-.761-1.333-2.38-1.524-4.096-.476-3.715-3.238.38-3.619 2.381-.19 3.334-.857 3.334-2.095 0-3.81-4.857-5.429-8.572-2.667zm11.904 4.762c.19 5.524.476 6.286 2.096 6.286 1.714 0 1.904-.572 1.619-4.762-.19-3.62.095-4.762 1.238-4.762 2 0 2.857 2.667 2.095 6.762-.667 3.238-.476 3.429 1.714 3.143 2-.286 2.286-.857 2-3.238-.476-4.572.572-7.62 2.477-6.953 1.142.476 1.428 1.81 1.238 5.238-.286 4.096-.096 4.667 2 4.953 2.19.286 2.19.095 1.524-5.048-.286-2.952-1.048-5.714-1.524-6.286-.476-.476-4.477-1.047-8.762-1.238l-8-.286.285 6.191zm33.334-5.143c-1.81 1.143-2.38 3.905-.666 3.905a.954.954 0 0 0 .952-.952c0-.572.857-1.048 1.905-1.048 1.524 0 1.905.762 1.905 3.619 0 4.286 2.476 7.524 4.38 5.62.953-.953.953-1.43 0-2.382-.666-.667-1.142-2.571-1.142-4.286 0-4.952-3.143-6.857-7.334-4.476zm11.143 1.143c-1.238 2.286-.571 3.429 3.334 5.429 2.285 1.143 2.762 1.81 1.905 2.666-.858.858-1.62.858-3.048 0-1.238-.762-2.19-.857-2.572-.285-.857 1.333 1.715 2.19 5.143 1.81 2.286-.191 2.953-.858 3.143-2.953.286-2.096-.285-2.857-2.666-3.81-3.715-1.524-4-3.048-.572-3.048 1.333 0 2.476-.38 2.476-.857 0-1.714-6.095-.857-7.143 1.048zm14.191-1.333c0 .571.667 1.142 1.429 1.523.952.286 1.524 0 1.524-.952 0-.762-.667-1.429-1.524-1.429-.762 0-1.429.381-1.429.858zm7.905-.096c-.381 2.572.286 10.858.857 11.43 1.714 1.713 2.762-1.144 2.381-6.477-.286-4.095-.762-5.715-1.81-5.715-.761 0-1.428.381-1.428.762zm7.62 0c-1.525 1.524-.382 5.334 1.904 6.381 1.429.667 2.571 1.81 2.571 2.477 0 1.619-.571 1.714-3.142.38-1.524-.857-1.905-.761-1.905.572 0 1.143.857 1.524 3.714 1.238 3.334-.286 3.81-.666 4.095-3.047.286-2.381-.19-2.953-2.762-3.905-1.619-.572-3.047-1.715-3.047-2.477 0-1.619.476-1.714 3.047-.38 1.524.857 2 .761 2-.286 0-1.429-5.238-2.19-6.476-.953zm19.619.477c-1.238 1.238-1.62 3.714-.572 3.714.381 0 1.238-.667 1.905-1.62 1.714-2.38 3.238-.952 3.048 2.858-.096 3.524-2.572 5.238-2.572 1.905 0-1.81-.286-2-2-1.143-1.143.667-2 1.714-2 2.571 0 1.905 3.238 3.524 5.048 2.477.762-.477 2.19-.477 3.238.19 1.429.667 2.286.667 3.048-.19.857-.953.857-1.334-.096-1.715-.666-.285-1.238-2.095-1.238-4.19 0-4.19-1.428-6.096-4.476-6.096-1.143 0-2.667.572-3.333 1.239zm12.476-.381c-.19.38-.095 3.238.095 6.476.381 4.571.762 5.714 2 5.429 1.143-.19 1.62-1.524 1.62-5.239.095-3.81.476-5.047 1.619-5.047 1.142 0 1.619 1.428 1.81 5.333.285 4.857.475 5.238 2.475 4.953 1.429-.19 2.096-.858 1.81-1.81-.286-.762-.667-3.238-.857-5.429-.286-2.19-.953-4.285-1.524-4.666-1.429-.858-8.667-.858-9.048 0zm16 .952c-2.476 2.667-2.095 7.714.572 9.62 2.762 2 3.905 2 6.286 0 1.904-1.43 1.904-1.525-.477-1.239-3.619.381-5.047-.857-5.047-4.095 0-3.524 2.666-6.19 3.619-3.715.762 2 3.429 2.191 3.429.19 0-2.952-5.905-3.428-8.382-.761zm-66.953-.19c-1.62 1.619-.477 4.285 2.285 5.523 2.191.953 2.953 1.905 2.667 3.143-.571 2.096.667 2.286 2.286.286 1.524-1.81.286-4.286-3.048-6-1.333-.667-2.286-1.714-2.19-2.381.285-1.333-.953-1.62-2-.571z"/>
	<path d="M526.257 227.498c-1.62 1.619-1.62 2-.286 3.333 2 2 3.524.476 2.667-2.762-.572-2.286-.667-2.286-2.381-.571zm22.857 2.476c.286.571.762 1.048 1.048 1.048.19 0 .476-.477.476-1.048 0-.476-.571-.952-1.143-.952-.571 0-.762.476-.38.952zm-264.1 18.096c-.286.571-.096 1.714.666 2.476.858 1.048 1.048 3.81.667 9.048-.571 7.143-.476 7.428 1.524 7.428 2.095 0 2.19-.38 1.905-8.762-.19-4.762-.477-9.333-.667-10-.571-1.524-3.143-1.619-4.095-.19zm33.62 4.476c-.953 1.048-1.143 3.143-.667 7.238.762 6.381 1.619 7.81 4.19 6.857 1.62-.571 1.62-.761.096-2.476-2.096-2.286-2.096-5.524-.096-7.524 1.429-1.428 1.334-1.81-.38-3.619-1.715-1.81-2-1.905-3.144-.476zm-24.001 4.095c-2.476 3.143-2.476 3.62-.476 7.429 2.285 4.476 7.714 4.095 10.286-.762 1.238-2.286.666-4.762-1.62-7.524-2.19-2.571-5.81-2.19-8.19.857zm7.048 1.715c2.19 4.857-2.667 8.857-5.429 4.476-.762-1.143-.762-2.381.095-4.19 1.524-3.239 3.905-3.334 5.334-.286zm5.81-2.762c-1.525 1.904-.286 4.476 2.952 5.904 2.38 1.143 2.857 3.048.857 3.905-.667.286-.381.477.667.381 3.238-.38 4.285-3.333 2.19-5.714-1.048-1.143-2.476-2.095-3.238-2.095s-1.333-.762-1.333-1.62c0-1.333.285-1.428 1.238-.57 1.619 1.713 3.81 1.523 3.81-.287 0-2-5.43-2-7.144.096zm-.286 8.285c-.381.572-.19 1.334.476 1.715 1.524.952 2.476-.381 1.238-1.715-.762-.666-1.333-.666-1.714 0zm19.429.477c0 2.095 1.142 2.762 2.571 1.524 2-1.62 1.714-2.858-.571-2.858-1.143 0-2 .572-2 1.334z"/>
</svg>
